<svg width="1524" height="399" viewBox="0 0 1524 399" fill="none" xmlns="http://www.w3.org/2000/svg">
<path d="M0 393.345V5.07031H48.9606V346.813H142.96V393.345H0Z" fill="white"/>
<path d="M239.901 260.824H294.656L267.982 98.177H266.576L239.901 260.824ZM170.359 393.346L242.116 2.85547H292.995L364.198 393.346H316.943L303.307 307.356H232.657L217.658 393.346H170.359Z" fill="white"/>
<path d="M381.328 5.07031H430.245V296.617C430.245 333.476 442.22 351.926 466.124 351.926C476.692 351.926 485.342 347.282 491.989 338.035C498.679 328.746 502.003 315.707 502.003 298.875V5.07031H551.006V293.464C551.006 327.51 542.526 353.503 525.652 371.528C508.821 389.467 488.964 398.458 466.124 398.458C441.836 398.458 421.638 389.083 405.531 370.334C389.381 351.628 381.328 327.297 381.328 297.427V5.07031Z" fill="white"/>
<path d="M628.133 393.345V51.6444H569.756V5.07031H735.514V51.6444H677.094V393.345H628.133Z" fill="white"/>
<path d="M756.521 393.345H805.482V5.07031H756.521V393.345Z" fill="white"/>
<path d="M838.165 383.417V331.772C852.823 345.961 867.012 353.077 880.733 353.077C890.917 353.077 899.653 349.37 906.854 342.084C914.099 334.754 917.72 325.934 917.72 315.579C917.72 306.716 915.675 295.936 911.584 283.237C907.493 270.539 896.542 247.146 878.645 212.971C860.749 178.84 849.115 152.975 843.747 135.376C838.335 117.778 835.65 102.267 835.65 88.802C835.65 62.7239 842.937 41.3756 857.51 24.7998C872.04 8.26664 890.662 0 913.288 0C926.072 0 939.708 3.40894 954.153 10.2267V57.3122C940.773 49.3439 929.395 45.4237 919.936 45.4237C895.264 45.4237 882.949 57.6958 882.949 82.2824C882.949 91.4013 885.037 102.31 889.213 115.051C893.389 127.834 904.382 151.142 922.322 184.891C940.176 218.681 951.766 244.376 957.05 262.06C962.377 279.786 964.976 295.424 964.976 309.06C964.976 335.521 957.732 357.083 943.159 373.616C928.586 390.192 909.752 398.458 886.571 398.458C869.867 398.458 853.761 393.43 838.165 383.417Z" fill="white"/>
<path d="M980.444 383.417V331.772C995.102 345.961 1009.29 353.077 1022.97 353.077C1033.2 353.077 1041.89 349.37 1049.13 342.084C1056.38 334.754 1059.96 325.934 1059.96 315.579C1059.96 306.716 1057.95 295.936 1053.86 283.237C1049.77 270.539 1038.82 247.146 1020.88 212.971C1002.98 178.84 991.395 152.975 985.983 135.376C980.615 117.778 977.93 102.267 977.93 88.802C977.93 62.7239 985.217 41.3756 999.747 24.7998C1014.32 8.26664 1032.9 0 1055.53 0C1068.35 0 1081.94 3.40894 1096.43 10.2267V57.3122C1083.05 49.3439 1071.68 45.4237 1062.21 45.4237C1037.54 45.4237 1025.23 57.6958 1025.23 82.2824C1025.23 91.4013 1027.32 102.31 1031.49 115.051C1035.63 127.834 1046.66 151.142 1064.56 184.891C1082.46 218.681 1094.05 244.376 1099.33 262.06C1104.61 279.786 1107.26 295.424 1107.26 309.06C1107.26 335.521 1099.97 357.083 1085.44 373.616C1070.86 390.192 1051.99 398.458 1028.81 398.458C1012.15 398.458 995.997 393.43 980.444 383.417Z" fill="white"/>
<path d="M1136.32 393.345H1185.28V5.07031H1136.32V393.345Z" fill="white"/>
<path d="M1330.07 147.562L1386.53 5.07031H1428.5V393.345H1380.69L1383.72 112.664L1382.35 111.513L1334.5 239.262H1325.59L1277.78 111.513L1276.34 112.664L1279.4 393.345H1231.59V5.07031H1273.57L1330.07 147.562Z" fill="white"/>
<path d="M1474.82 393.345H1523.78V5.07031H1474.82V393.345Z" fill="white"/>
</svg>
