<svg width="923" height="353" viewBox="0 0 923 353" fill="none" xmlns="http://www.w3.org/2000/svg">
<path d="M633.926 334.391L642.926 270.953H643.968L669.759 323.016L695.28 270.953H696.322L705.426 334.391H699.155L692.947 289.036L670.53 334.391H668.947L646.218 288.682L640.051 334.391H633.926Z" fill="white"/>
<path d="M739.193 286.267C746.401 286.267 752.38 288.887 757.13 294.121C761.433 298.887 763.589 304.533 763.589 311.059C763.589 317.616 761.308 323.345 756.755 328.246C752.198 333.152 746.344 335.6 739.193 335.6C731.995 335.6 726.12 333.152 721.568 328.246C717.011 323.345 714.735 317.616 714.735 311.059C714.735 304.559 716.891 298.928 721.214 294.163C725.948 288.902 731.943 286.267 739.193 286.267ZM739.193 292.184C734.193 292.184 729.891 294.038 726.297 297.746C722.698 301.454 720.901 305.934 720.901 311.184C720.901 314.59 721.719 317.757 723.36 320.684C724.995 323.616 727.214 325.882 730.005 327.475C732.797 329.074 735.86 329.871 739.193 329.871C742.526 329.871 745.578 329.074 748.36 327.475C751.151 325.882 753.365 323.616 755.005 320.684C756.641 317.757 757.464 314.59 757.464 311.184C757.464 305.934 755.656 301.454 752.047 297.746C748.448 294.038 744.162 292.184 739.193 292.184ZM730.38 268.934C731.766 268.934 732.948 269.428 733.922 270.413C734.891 271.387 735.38 272.559 735.38 273.934C735.38 275.309 734.891 276.491 733.922 277.475C732.948 278.449 731.766 278.934 730.38 278.934C729.005 278.934 727.823 278.449 726.839 277.475C725.865 276.491 725.38 275.309 725.38 273.934C725.38 272.559 725.865 271.387 726.839 270.413C727.823 269.428 729.005 268.934 730.38 268.934ZM747.985 268.934C749.36 268.934 750.531 269.428 751.505 270.413C752.49 271.387 752.985 272.559 752.985 273.934C752.985 275.309 752.49 276.491 751.505 277.475C750.531 278.449 749.36 278.934 747.985 278.934C746.594 278.934 745.412 278.449 744.443 277.475C743.469 276.491 742.985 275.309 742.985 273.934C742.985 272.559 743.469 271.387 744.443 270.413C745.412 269.428 746.594 268.934 747.985 268.934Z" fill="white"/>
<path d="M775.207 334.392V269.371H781.186V295.538C783.712 292.444 786.546 290.121 789.686 288.579C792.822 287.038 796.259 286.267 799.999 286.267C806.634 286.267 812.301 288.678 816.999 293.496C821.707 298.303 824.061 304.142 824.061 311.017C824.061 317.809 821.686 323.611 816.936 328.413C812.197 333.204 806.489 335.6 799.811 335.6C795.989 335.6 792.525 334.777 789.416 333.142C786.317 331.507 783.572 329.048 781.186 325.767V334.392H775.207ZM799.353 329.788C802.712 329.788 805.817 328.965 808.666 327.309C811.509 325.642 813.775 323.319 815.457 320.329C817.134 317.345 817.978 314.184 817.978 310.85C817.978 307.517 817.129 304.345 815.436 301.329C813.739 298.303 811.462 295.949 808.603 294.267C805.739 292.59 802.686 291.746 799.436 291.746C796.129 291.746 792.983 292.59 789.999 294.267C787.025 295.949 784.739 298.215 783.145 301.059C781.561 303.908 780.77 307.116 780.77 310.684C780.77 316.116 782.551 320.658 786.124 324.309C789.707 327.965 794.114 329.788 799.353 329.788Z" fill="white"/>
<path d="M874.557 318.828L879.64 321.495C877.974 324.776 876.041 327.422 873.849 329.432C871.666 331.448 869.208 332.984 866.474 334.036C863.75 335.078 860.666 335.599 857.224 335.599C849.567 335.599 843.583 333.094 839.265 328.078C834.958 323.068 832.807 317.391 832.807 311.057C832.807 305.115 834.63 299.807 838.286 295.141C842.911 289.224 849.104 286.266 856.869 286.266C864.869 286.266 871.25 289.302 876.015 295.37C879.401 299.651 881.13 304.995 881.203 311.411H839.015C839.14 316.87 840.88 321.349 844.244 324.849C847.604 328.339 851.755 330.078 856.703 330.078C859.088 330.078 861.411 329.661 863.661 328.828C865.921 327.995 867.838 326.891 869.411 325.516C870.994 324.13 872.708 321.901 874.557 318.828ZM874.557 306.182C873.75 302.974 872.578 300.406 871.036 298.474C869.494 296.547 867.458 294.99 864.932 293.807C862.401 292.63 859.744 292.036 856.953 292.036C852.354 292.036 848.401 293.526 845.099 296.495C842.682 298.651 840.854 301.88 839.619 306.182H874.557Z" fill="white"/>
<path d="M891.541 269.371H897.583V334.392H891.541V269.371Z" fill="white"/>
<path d="M916.78 324.91C918.24 324.91 919.48 325.431 920.51 326.473C921.55 327.504 922.07 328.759 922.07 330.243C922.07 331.717 921.55 332.983 920.51 334.035C919.48 335.077 918.24 335.598 916.78 335.598C915.31 335.598 914.05 335.077 913.01 334.035C911.98 332.983 911.47 331.717 911.47 330.243C911.47 328.759 911.98 327.504 913.01 326.473C914.05 325.431 915.31 324.91 916.78 324.91Z" fill="white"/>
<path d="M347.651 269.371C357.261 269.371 365.297 272.579 371.755 278.996C378.224 285.402 381.464 293.288 381.464 302.663C381.464 311.944 378.235 319.819 371.776 326.288C365.328 332.762 357.464 335.996 348.172 335.996C338.766 335.996 330.828 332.777 324.36 326.329C317.901 319.887 314.672 312.095 314.672 302.954C314.672 296.861 316.141 291.215 319.089 286.017C322.031 280.809 326.047 276.736 331.13 273.788C336.224 270.845 341.735 269.371 347.651 269.371ZM347.964 275.579C343.281 275.579 338.839 276.803 334.63 279.246C330.433 281.694 327.156 284.986 324.797 289.121C322.448 293.262 321.276 297.871 321.276 302.954C321.276 310.486 323.88 316.845 329.089 322.038C334.308 327.236 340.599 329.829 347.964 329.829C352.88 329.829 357.427 328.637 361.61 326.246C365.787 323.861 369.052 320.595 371.401 316.454C373.745 312.319 374.922 307.72 374.922 302.663C374.922 297.621 373.745 293.074 371.401 289.017C369.052 284.949 365.755 281.694 361.505 279.246C357.255 276.803 352.74 275.579 347.964 275.579Z" fill="white"/>
<path d="M393.604 334.392V269.371H399.583V295.538C402.109 292.444 404.942 290.121 408.083 288.579C411.218 287.038 414.656 286.267 418.395 286.267C425.031 286.267 430.698 288.678 435.395 293.496C440.104 298.303 442.458 304.142 442.458 311.017C442.458 317.809 440.083 323.611 435.333 328.413C430.593 333.204 424.885 335.6 418.208 335.6C414.385 335.6 410.921 334.777 407.812 333.142C404.713 331.507 401.968 329.048 399.583 325.767V334.392H393.604ZM417.75 329.788C421.109 329.788 424.213 328.965 427.062 327.309C429.906 325.642 432.171 323.319 433.854 320.329C435.531 317.345 436.375 314.184 436.375 310.85C436.375 307.517 435.526 304.345 433.833 301.329C432.135 298.303 429.859 295.949 427 294.267C424.135 292.59 421.083 291.746 417.833 291.746C414.526 291.746 411.38 292.59 408.395 294.267C405.421 295.949 403.135 298.215 401.541 301.059C399.958 303.908 399.166 307.116 399.166 310.684C399.166 316.116 400.947 320.658 404.52 324.309C408.104 327.965 412.51 329.788 417.75 329.788Z" fill="white"/>
<mask id="mask0_1771_517" style="mask-type:luminance" maskUnits="userSpaceOnUse" x="443" y="268" width="19" height="85">
<path d="M443.26 268H461.927V352.766H443.26V268Z" fill="white"/>
</mask>
<g mask="url(#mask0_1771_517)">
<path d="M455.702 268.16C457.077 268.16 458.244 268.65 459.202 269.618C460.171 270.592 460.66 271.775 460.66 273.16C460.66 274.509 460.171 275.676 459.202 276.66C458.244 277.634 457.077 278.118 455.702 278.118C454.311 278.118 453.129 277.634 452.16 276.66C451.202 275.676 450.723 274.509 450.723 273.16C450.723 271.775 451.202 270.592 452.16 269.618C453.129 268.65 454.311 268.16 455.702 268.16ZM452.723 287.473H458.848V341.452C458.848 345.395 458.129 348.264 456.702 350.056C455.285 351.858 453.337 352.764 450.869 352.764C448.827 352.764 446.53 352.27 443.973 351.285V345.868C445.572 346.702 447.02 347.118 448.327 347.118C449.962 347.118 451.186 346.436 451.994 345.077C452.478 344.212 452.723 342.421 452.723 339.702V287.473Z" fill="white"/>
</g>
<path d="M510.891 318.828L515.974 321.495C514.308 324.776 512.375 327.422 510.183 329.432C508 331.448 505.542 332.984 502.808 334.036C500.084 335.078 497 335.599 493.558 335.599C485.901 335.599 479.917 333.094 475.599 328.078C471.292 323.068 469.141 317.391 469.141 311.057C469.141 305.115 470.964 299.807 474.62 295.141C479.245 289.224 485.438 286.266 493.203 286.266C501.203 286.266 507.584 289.302 512.349 295.37C515.735 299.651 517.464 304.995 517.537 311.411H475.349C475.474 316.87 477.214 321.349 480.578 324.849C483.938 328.339 488.089 330.078 493.037 330.078C495.422 330.078 497.745 329.661 499.995 328.828C502.255 327.995 504.172 326.891 505.745 325.516C507.328 324.13 509.042 321.901 510.891 318.828ZM510.891 306.182C510.084 302.974 508.912 300.406 507.37 298.474C505.828 296.547 503.792 294.99 501.266 293.807C498.735 292.63 496.078 292.036 493.287 292.036C488.688 292.036 484.735 293.526 481.433 296.495C479.016 298.651 477.188 301.88 475.953 306.182H510.891Z" fill="white"/>
<path d="M528.75 269.371H534.834V306.371L556.521 287.475H565.396L539.646 309.85L566.917 334.392H558.375L534.834 313.309V334.392H528.75V269.371Z" fill="white"/>
<path d="M578.37 270.059H584.453V287.475H594.037V292.642H584.453V334.392H578.37V292.642H570.141V287.475H578.37V270.059Z" fill="white"/>
<path d="M609.698 324.91C611.156 324.91 612.395 325.431 613.427 326.473C614.468 327.504 614.989 328.759 614.989 330.243C614.989 331.717 614.468 332.983 613.427 334.035C612.395 335.077 611.156 335.598 609.698 335.598C608.224 335.598 606.968 335.077 605.927 334.035C604.895 332.983 604.385 331.717 604.385 330.243C604.385 328.759 604.895 327.504 605.927 326.473C606.968 325.431 608.224 324.91 609.698 324.91Z" fill="white"/>
<path d="M0 334.391V270.953H13.1668C22.6508 270.953 29.5308 271.719 33.8128 273.245C39.9638 275.401 44.7708 279.135 48.2288 284.453C51.6978 289.776 53.4378 296.115 53.4378 303.474C53.4378 309.823 52.0628 315.411 49.3128 320.245C46.5728 325.078 43.0108 328.651 38.6248 330.953C34.2348 333.245 28.0888 334.391 20.1878 334.391H0ZM6.0838 328.391H13.4168C22.1928 328.391 28.2758 327.849 31.6668 326.766C36.4268 325.214 40.1768 322.411 42.9168 318.37C45.6508 314.328 47.0208 309.391 47.0208 303.557C47.0208 297.432 45.5308 292.203 42.5628 287.87C39.6038 283.526 35.4788 280.547 30.1878 278.932C26.2288 277.724 19.6928 277.12 10.5838 277.12H6.0838V328.391Z" fill="white"/>
<path d="M104.244 318.828L109.328 321.495C107.661 324.776 105.729 327.422 103.536 329.432C101.354 331.448 98.8947 332.984 96.1607 334.036C93.4367 335.078 90.3537 335.599 86.9107 335.599C79.2547 335.599 73.2697 333.094 68.9527 328.078C64.6447 323.068 62.4937 317.391 62.4937 311.057C62.4937 305.115 64.3167 299.807 67.9737 295.141C72.5987 289.224 78.7907 286.266 86.5567 286.266C94.5567 286.266 100.937 289.302 105.703 295.37C109.088 299.651 110.817 304.995 110.89 311.411H68.7027C68.8277 316.87 70.5667 321.349 73.9317 324.849C77.2907 328.339 81.4417 330.078 86.3897 330.078C88.7757 330.078 91.0987 329.661 93.3487 328.828C95.6087 327.995 97.5257 326.891 99.0987 325.516C100.682 324.13 102.395 321.901 104.244 318.828ZM104.244 306.182C103.437 302.974 102.265 300.406 100.724 298.474C99.1817 296.547 97.1447 294.99 94.6187 293.807C92.0877 292.63 89.4317 292.036 86.6397 292.036C82.0407 292.036 78.0877 293.526 74.7857 296.495C72.3687 298.651 70.5407 301.88 69.3067 306.182H104.244Z" fill="white"/>
<path d="M145.464 292.599L141.589 296.62C138.365 293.484 135.219 291.911 132.151 291.911C130.193 291.911 128.511 292.568 127.11 293.87C125.719 295.161 125.026 296.672 125.026 298.391C125.026 299.906 125.599 301.359 126.755 302.745C127.906 304.151 130.323 305.802 134.005 307.703C138.474 310.026 141.516 312.266 143.13 314.432C144.714 316.615 145.505 319.073 145.505 321.807C145.505 325.656 144.151 328.922 141.443 331.599C138.745 334.266 135.37 335.599 131.318 335.599C128.62 335.599 126.047 335.005 123.589 333.828C121.13 332.651 119.094 331.026 117.485 328.953L121.276 324.641C124.344 328.13 127.61 329.87 131.068 329.87C133.485 329.87 135.537 329.094 137.235 327.536C138.927 325.984 139.776 324.156 139.776 322.057C139.776 320.339 139.214 318.802 138.089 317.453C136.964 316.12 134.433 314.448 130.505 312.432C126.281 310.255 123.406 308.099 121.88 305.974C120.349 303.849 119.589 301.422 119.589 298.682C119.589 295.13 120.802 292.172 123.235 289.807C125.662 287.448 128.735 286.266 132.443 286.266C136.745 286.266 141.089 288.38 145.464 292.599Z" fill="white"/>
<path d="M158.265 268.16C159.651 268.16 160.833 268.65 161.807 269.618C162.776 270.592 163.265 271.775 163.265 273.16C163.265 274.509 162.776 275.676 161.807 276.66C160.833 277.634 159.651 278.118 158.265 278.118C156.916 278.118 155.75 277.634 154.765 276.66C153.791 275.676 153.307 274.509 153.307 273.16C153.307 271.775 153.791 270.592 154.765 269.618C155.75 268.65 156.916 268.16 158.265 268.16ZM155.244 287.473H161.328V334.389H155.244V287.473Z" fill="white"/>
<mask id="mask1_1771_517" style="mask-type:luminance" maskUnits="userSpaceOnUse" x="171" y="285" width="50" height="68">
<path d="M171.26 285.332H220.593V352.764H171.26V285.332Z" fill="white"/>
</mask>
<g mask="url(#mask1_1771_517)">
<path d="M214.239 287.474H220.322V324.87C220.322 331.453 219.744 336.266 218.593 339.307C217.02 343.609 214.28 346.932 210.364 349.266C206.457 351.599 201.759 352.766 196.259 352.766C192.228 352.766 188.614 352.193 185.405 351.057C182.207 349.917 179.603 348.391 177.593 346.474C175.577 344.568 173.723 341.776 172.03 338.099H178.593C180.369 341.208 182.666 343.505 185.489 344.995C188.306 346.495 191.801 347.245 195.968 347.245C200.077 347.245 203.541 346.474 206.364 344.932C209.197 343.391 211.218 341.453 212.426 339.12C213.634 336.797 214.239 333.052 214.239 327.87V325.474C211.973 328.349 209.202 330.557 205.926 332.099C202.645 333.63 199.166 334.391 195.489 334.391C191.166 334.391 187.114 333.323 183.322 331.182C179.53 329.047 176.598 326.161 174.53 322.536C172.457 318.911 171.426 314.927 171.426 310.578C171.426 306.245 172.499 302.203 174.655 298.453C176.806 294.703 179.785 291.74 183.593 289.557C187.41 287.365 191.431 286.266 195.655 286.266C199.166 286.266 202.436 286.995 205.468 288.453C208.494 289.901 211.416 292.286 214.239 295.62V287.474ZM196.426 292.099C193.009 292.099 189.832 292.927 186.905 294.578C183.973 296.234 181.676 298.516 180.009 301.432C178.343 304.349 177.509 307.505 177.509 310.891C177.509 316.031 179.228 320.286 182.676 323.661C186.134 327.026 190.603 328.703 196.093 328.703C201.634 328.703 206.093 327.036 209.468 323.703C212.853 320.37 214.551 315.984 214.551 310.536C214.551 307.01 213.77 303.859 212.218 301.078C210.66 298.302 208.457 296.115 205.614 294.516C202.765 292.906 199.702 292.099 196.426 292.099Z" fill="white"/>
</g>
<path d="M233.27 287.474H239.311V295.891C241.728 292.672 244.4 290.26 247.332 288.661C250.259 287.068 253.447 286.266 256.895 286.266C260.405 286.266 263.52 287.161 266.228 288.953C268.947 290.734 270.957 293.13 272.249 296.141C273.541 299.156 274.186 303.859 274.186 310.245V334.391H268.186V312.016C268.186 306.615 267.957 303.005 267.499 301.182C266.791 298.089 265.442 295.755 263.457 294.182C261.468 292.615 258.879 291.828 255.686 291.828C252.03 291.828 248.759 293.036 245.874 295.453C242.983 297.87 241.082 300.859 240.166 304.411C239.593 306.745 239.311 311.005 239.311 317.182V334.391H233.27V287.474Z" fill="white"/>
<path d="M293.776 324.91C295.234 324.91 296.474 325.431 297.505 326.473C298.546 327.504 299.067 328.759 299.067 330.243C299.067 331.717 298.546 332.983 297.505 334.035C296.474 335.077 295.234 335.598 293.776 335.598C292.302 335.598 291.046 335.077 290.005 334.035C288.974 332.983 288.463 331.717 288.463 330.243C288.463 328.759 288.974 327.504 290.005 326.473C291.046 325.431 292.302 324.91 293.776 324.91Z" fill="white"/>
<path fill-rule="evenodd" clip-rule="evenodd" d="M0.78125 213H26.4847V28.611H45.4427C83.9688 28.611 111.615 31.163 128.386 36.267C150.75 43.074 168.188 55.652 180.703 74.001C193.224 92.355 199.479 114.47 199.479 140.355C199.479 165.027 193.709 185.928 182.162 203.064C179.762 206.602 177.175 209.914 174.402 213H207.931C208.339 212.307 208.742 211.608 209.141 210.902C220.808 190.486 226.641 166.85 226.641 139.991C226.641 108.882 219.292 82.085 204.584 59.6C190 37.121 169.709 21.319 143.698 12.204C125.594 5.76687 96.4847 2.54297 56.3797 2.54297H0.78125V213Z" fill="white"/>
<path fill-rule="evenodd" clip-rule="evenodd" d="M522.911 40.651C495.567 13.552 461.599 0 421.01 0C395.974 0 372.703 6.2604 351.192 18.776C329.682 31.172 312.666 48.37 300.151 70.365C287.755 92.359 281.557 116.24 281.557 142.005C281.557 168.318 287.895 191.983 300.572 213H333.663C317.521 192.948 309.448 169.281 309.448 142.005C309.448 120.495 314.432 100.99 324.395 83.49C334.359 65.99 348.213 52.073 365.958 41.745C383.703 31.417 402.479 26.25 422.286 26.25C442.458 26.25 461.541 31.417 479.526 41.745C497.51 52.073 511.427 65.87 521.27 83.125C531.234 100.26 536.218 119.464 536.218 140.729C536.218 162.12 531.234 181.563 521.27 199.063C518.49 204.004 515.396 208.65 511.987 213H544.689C557.514 191.703 563.927 167.613 563.927 140.729C563.927 101.109 550.255 67.75 522.911 40.651Z" fill="white"/>
<path fill-rule="evenodd" clip-rule="evenodd" d="M741.569 213L674.485 78.066L656.281 213H630.813L660.63 3.14453H665.005L768.977 213H741.569ZM890.359 213L872.089 79.525L806.112 213H779.004L881.933 3.14453H886.308L916.408 213H890.359Z" fill="white"/>
</svg>
