<svg width="725" height="190" viewBox="0 0 725 190" fill="none" xmlns="http://www.w3.org/2000/svg">
<path d="M76.1718 56.7852V19.4883L57.427 10.1133V48.6758C59.401 49.7695 61.401 50.8268 63.4687 51.8112C67.6458 53.806 71.8853 55.4414 76.1718 56.7852Z" fill="#ED1C24"/>
<path d="M30.6041 27.7513C35.7655 33.3763 41.5885 38.3971 47.9739 42.819V5.39193L38.3749 0.589844L0.583252 19.4909V51.2669L27.2343 24.0794L30.6041 27.7513Z" fill="#ED1C24"/>
<path d="M76.1718 66.6654C70.4947 65.0716 64.8958 62.9622 59.3958 60.3372C58.7291 60.0195 58.0833 59.6758 57.427 59.3477V76.181H76.1718V66.6654Z" fill="#ED1C24"/>
<path d="M47.9739 54.1107C40.3124 49.3971 33.3124 43.9336 27.0885 37.7305L0.583252 64.7669V76.1836H47.9739V54.1107Z" fill="#ED1C24"/>
<path d="M153.339 50.6888H125.016V76.1784H114.089V19.5273H125.016V40.9753H153.339V19.5273H164.266V76.1784H153.339V50.6888Z" fill="white"/>
<path d="M194 67.2747C200.151 67.2747 204.359 62.4987 204.359 56.5924C204.359 50.6862 200.151 45.8268 194 45.8268C187.849 45.8268 183.641 50.6862 183.641 56.5924C183.641 62.4987 187.849 67.2747 194 67.2747ZM194 36.1133C205.901 36.1133 214.88 45.2643 214.88 56.5924C214.88 67.9206 205.901 76.9883 194 76.9883C182.104 76.9883 173.12 67.9206 173.12 56.5924C173.12 45.2643 182.104 36.1133 194 36.1133Z" fill="white"/>
<path d="M252.661 76.1771C251.286 76.6667 248.13 76.9896 246.104 76.9896C239.792 76.9896 235.182 74.8854 232.51 71.3229C230.484 68.651 229.594 65.1719 229.594 59.5885V45.8281H218.672V36.9271H229.594V26H240.115V36.9271H253.068V45.8281H240.115V60.8021C240.115 63.2292 240.521 64.6875 241.411 65.7396C242.464 66.9531 244.161 67.6823 246.755 67.6823C248.292 67.6823 250.313 67.4375 251.042 67.276L252.661 76.1771Z" fill="white"/>
<path d="M284.969 51.4961C284.646 48.0169 281.49 44.6159 277.203 44.6159C272.828 44.6159 269.271 47.9336 268.781 51.4961H284.969ZM294.766 69.9492C290.958 74.4805 284.724 76.9909 278.656 76.9909C266.922 76.9909 258.099 68.8971 258.099 56.5951C258.099 45.668 265.547 36.1211 277.203 36.1211C288.047 36.1211 295.734 45.2617 295.734 56.1888C295.734 57.2409 295.651 58.293 295.49 59.1836H268.297C268.865 64.6888 273.318 68.4909 278.901 68.4909C283.349 68.4909 286.912 65.9805 288.776 63.9596L294.766 69.9492Z" fill="white"/>
<path d="M314.63 76.1784H304.109V18.7148H314.63V76.1784Z" fill="white"/>
<path d="M336.073 76.1784H325.547V18.7148H336.073V76.1784Z" fill="white"/>
<path d="M371.365 51.4961C371.042 48.0169 367.885 44.6159 363.599 44.6159C359.229 44.6159 355.667 47.9336 355.177 51.4961H371.365ZM381.161 69.9492C377.354 74.4805 371.12 76.9909 365.052 76.9909C353.318 76.9909 344.495 68.8971 344.495 56.5951C344.495 45.668 351.943 36.1211 363.599 36.1211C374.443 36.1211 382.13 45.2617 382.13 56.1888C382.13 57.2409 382.052 58.293 381.891 59.1836H354.693C355.26 64.6888 359.714 68.4909 365.297 68.4909C369.745 68.4909 373.307 65.9805 375.172 63.9596L381.161 69.9492Z" fill="white"/>
<path d="M414.422 46.2357C413.693 45.9909 412.156 45.8294 410.615 45.8294C406.005 45.8294 402.365 49.1523 401.068 51.4961V76.1784H390.547V36.9284H400.661V40.8919C403.01 37.9805 407.297 36.1211 412.073 36.1211C413.615 36.1211 414.505 36.2826 415.635 36.444L414.422 46.2357Z" fill="white"/>
<path d="M432.76 76.1784H422.24V36.9284H432.76V76.1784ZM427.5 16.293C431.302 16.293 434.38 19.2044 434.38 23.0065C434.38 26.8138 431.302 29.7253 427.5 29.7253C423.698 29.7253 420.62 26.8138 420.62 23.0065C420.62 19.2044 423.698 16.293 427.5 16.293Z" fill="white"/>
<path d="M467.635 51.4961C467.313 48.0169 464.156 44.6159 459.865 44.6159C455.495 44.6159 451.932 47.9336 451.448 51.4961H467.635ZM477.427 69.9492C473.625 74.4805 467.391 76.9909 461.323 76.9909C449.589 76.9909 440.766 68.8971 440.766 56.5951C440.766 45.668 448.214 36.1211 459.865 36.1211C470.708 36.1211 478.396 45.2617 478.396 56.1888C478.396 57.2409 478.318 58.293 478.156 59.1836H450.964C451.531 64.6888 455.979 68.4909 461.563 68.4909C466.016 68.4909 469.578 65.9805 471.438 63.9596L477.427 69.9492Z" fill="white"/>
<path d="M490.859 61.0469C494.099 64.6042 499.036 67.276 504.213 67.276C509.068 67.276 512.469 64.2813 512.469 60.1563C512.469 52.8698 501.948 51.9792 494.338 47.5313C489.891 44.9375 486.328 41.0521 486.328 34.6615C486.328 24.5469 495.635 18.7188 505.026 18.7188C510.771 18.7188 516.109 20.0938 521.453 24.0573L515.786 32.151C513.521 30.0469 509.719 28.4271 505.995 28.4271C501.87 28.4271 497.255 30.2083 497.255 34.5781C497.255 43.724 523.396 40.8906 523.396 59.9896C523.396 70.026 514.411 76.9896 504.213 76.9896C496.609 76.9896 489.568 73.8333 483.74 68.4896L490.859 61.0469Z" fill="white"/>
<path d="M568.635 36.9258V76.1758H558.521V73.0195C555.443 75.7747 551.719 76.9883 547.922 76.9883C542.495 76.9883 537.641 74.4779 534.562 70.6758C532.057 67.5977 530.599 63.5508 530.599 57.7227V36.9258H541.12V58.1289C541.12 61.6914 541.849 63.4727 543.062 64.8477C544.682 66.6289 546.948 67.2747 548.969 67.2747C553.422 67.2747 556.661 64.2799 558.115 62.4206V36.9258H568.635Z" fill="white"/>
<path d="M590.198 76.1784H579.672V36.9284H590.198V76.1784ZM584.938 16.293C588.74 16.293 591.813 19.2044 591.813 23.0065C591.813 26.8138 588.74 29.7253 584.938 29.7253C581.13 29.7253 578.057 26.8138 578.057 23.0065C578.057 19.2044 581.13 16.293 584.938 16.293Z" fill="white"/>
<path d="M602.578 64.2044C605.25 66.6315 609.38 68.0898 613.344 68.0898C616.177 68.0898 618.365 66.7096 618.365 64.7669C618.365 58.8607 599.344 60.9648 599.344 48.3398C599.344 40.8138 606.625 36.1211 614.396 36.1211C619.495 36.1211 625.078 38.0586 627.667 40.0846L622.734 47.694C620.708 46.2357 618.042 45.0221 615.208 45.0221C612.292 45.0221 609.865 46.1523 609.865 48.1784C609.865 53.2773 628.885 51.2513 628.885 64.8503C628.885 72.3763 621.521 76.9909 613.266 76.9909C607.839 76.9909 602.094 75.1263 597.484 71.7305L602.578 64.2044Z" fill="white"/>
<path d="M638.797 64.2044C641.469 66.6315 645.599 68.0898 649.563 68.0898C652.396 68.0898 654.583 66.7096 654.583 64.7669C654.583 58.8607 635.563 60.9648 635.563 48.3398C635.563 40.8138 642.844 36.1211 650.615 36.1211C655.714 36.1211 661.297 38.0586 663.885 40.0846L658.948 47.694C656.927 46.2357 654.255 45.0221 651.422 45.0221C648.51 45.0221 646.083 46.1523 646.083 48.1784C646.083 53.2773 665.104 51.2513 665.104 64.8503C665.104 72.3763 657.734 76.9909 649.484 76.9909C644.057 76.9909 638.313 75.1263 633.698 71.7305L638.797 64.2044Z" fill="white"/>
<path d="M697.521 51.4961C697.198 48.0169 694.042 44.6159 689.755 44.6159C685.385 44.6159 681.823 47.9336 681.333 51.4961H697.521ZM707.318 69.9492C703.51 74.4805 697.276 76.9909 691.208 76.9909C679.474 76.9909 670.651 68.8971 670.651 56.5951C670.651 45.668 678.099 36.1211 689.755 36.1211C700.599 36.1211 708.287 45.2617 708.287 56.1888C708.287 57.2409 708.208 58.293 708.047 59.1836H680.849C681.417 64.6888 685.87 68.4909 691.453 68.4909C695.901 68.4909 699.464 65.9805 701.328 63.9596L707.318 69.9492Z" fill="white"/>
<path d="M150.51 113.926V123.634H135.537V170.577H124.609V123.634H109.635V113.926H150.51Z" fill="white"/>
<path d="M175.807 140.634C175.078 140.389 173.542 140.228 172.005 140.228C167.391 140.228 163.75 143.551 162.453 145.895V170.577H151.932V131.327H162.047V135.29C164.396 132.379 168.682 130.52 173.458 130.52C175 130.52 175.891 130.676 177.021 130.842L175.807 140.634Z" fill="white"/>
<path d="M221.292 131.328V170.578H211.172V167.422C208.099 170.177 204.375 171.391 200.573 171.391C195.146 171.391 190.292 168.88 187.219 165.078C184.708 162 183.25 157.953 183.25 152.13V131.328H193.771V152.531C193.771 156.094 194.5 157.87 195.714 159.25C197.333 161.031 199.599 161.677 201.625 161.677C206.073 161.677 209.313 158.682 210.771 156.818V131.328H221.292Z" fill="white"/>
<path d="M233.875 158.603C236.547 161.03 240.672 162.483 244.641 162.483C247.474 162.483 249.656 161.108 249.656 159.165C249.656 153.259 230.635 155.363 230.635 142.738C230.635 135.212 237.922 130.52 245.693 130.52C250.792 130.52 256.375 132.462 258.964 134.483L254.026 142.087C252.005 140.634 249.333 139.421 246.5 139.421C243.589 139.421 241.156 140.551 241.156 142.577C241.156 147.676 260.177 145.65 260.177 159.249C260.177 166.775 252.812 171.389 244.557 171.389C239.135 171.389 233.391 169.525 228.776 166.129L233.875 158.603Z" fill="white"/>
<path d="M298.812 170.579C297.437 171.064 294.281 171.392 292.26 171.392C285.948 171.392 281.333 169.288 278.661 165.725C276.635 163.053 275.75 159.574 275.75 153.991V140.23H264.823V131.329H275.75V120.402H286.271V131.329H299.219V140.23H286.271V155.204C286.271 157.632 286.677 159.09 287.562 160.142C288.62 161.355 290.318 162.085 292.906 162.085C294.443 162.085 296.469 161.84 297.193 161.678L298.812 170.579Z" fill="white"/>
<path d="M331.12 145.896C330.797 142.417 327.641 139.016 323.354 139.016C318.984 139.016 315.422 142.333 314.932 145.896H331.12ZM340.917 164.349C337.109 168.88 330.88 171.391 324.807 171.391C313.073 171.391 304.25 163.297 304.25 150.995C304.25 140.068 311.698 130.516 323.354 130.516C334.198 130.516 341.885 139.661 341.885 150.589C341.885 151.641 341.807 152.693 341.646 153.583H314.448C315.016 159.089 319.469 162.891 325.052 162.891C329.5 162.891 333.063 160.38 334.927 158.359L340.917 164.349Z" fill="white"/>
<path d="M377.766 145.087C375.578 142.171 372.099 140.228 368.052 140.228C361.901 140.228 357.938 145.327 357.938 150.993C357.938 157.145 362.385 161.676 368.292 161.676C372.26 161.676 375.74 159.733 377.766 156.822V145.087ZM378.167 170.577V167.421C374.932 170.171 371.208 171.389 367.24 171.389C361.417 171.389 355.911 168.796 352.432 164.754C349.354 161.191 347.411 156.337 347.411 150.993C347.411 139.421 355.995 130.514 366.677 130.514C370.964 130.514 374.688 131.728 377.766 134.16V113.113H388.287V170.577H378.167Z" fill="white"/>
<path d="M426.078 155.449C429.318 159.007 434.255 161.678 439.432 161.678C444.286 161.678 447.688 158.684 447.688 154.559C447.688 147.272 437.167 146.382 429.557 141.928C425.104 139.34 421.547 135.454 421.547 129.064C421.547 118.949 430.854 113.121 440.24 113.121C445.99 113.121 451.328 114.496 456.667 118.46L451.005 126.553C448.74 124.449 444.938 122.829 441.214 122.829C437.089 122.829 432.474 124.611 432.474 128.98C432.474 138.126 458.609 135.293 458.609 154.397C458.609 164.428 449.63 171.392 439.432 171.392C431.823 171.392 424.781 168.236 418.958 162.892L426.078 155.449Z" fill="white"/>
<path d="M503.854 131.328V170.578H493.74V167.422C490.661 170.177 486.937 171.391 483.135 171.391C477.713 171.391 472.859 168.88 469.781 165.078C467.271 162 465.818 157.953 465.818 152.13V131.328H476.333V152.531C476.333 156.094 477.068 157.87 478.276 159.25C479.896 161.031 482.161 161.677 484.187 161.677C488.641 161.677 491.875 158.682 493.333 156.818V131.328H503.854Z" fill="white"/>
<path d="M525.396 156.823C527.422 159.734 530.901 161.677 534.87 161.677C540.776 161.677 545.224 157.146 545.224 150.995C545.224 145.328 541.26 140.229 535.109 140.229C531.063 140.229 527.583 142.172 525.396 145.083V156.823ZM514.875 131.328H524.995V134.484C528.068 131.974 532.036 130.516 536.484 130.516C547.167 130.516 555.75 139.422 555.75 150.995C555.75 156.333 553.885 161.193 550.813 164.75C547.328 168.797 541.75 171.391 535.922 171.391C531.953 171.391 528.552 170.255 525.396 167.828V190.005H514.875V131.328Z" fill="white"/>
<path d="M574.578 156.823C576.604 159.734 580.083 161.677 584.052 161.677C589.958 161.677 594.406 157.146 594.406 150.995C594.406 145.328 590.443 140.229 584.292 140.229C580.245 140.229 576.766 142.172 574.578 145.083V156.823ZM564.057 131.328H574.177V134.484C577.25 131.974 581.219 130.516 585.667 130.516C596.349 130.516 604.932 139.422 604.932 150.995C604.932 156.333 603.068 161.193 599.995 164.75C596.51 168.797 590.932 171.391 585.104 171.391C581.135 171.391 577.734 170.255 574.578 167.828V190.005H564.057V131.328Z" fill="white"/>
<path d="M623.87 170.579H613.344V113.121H623.87V170.579Z" fill="white"/>
<path d="M645.422 170.578H634.901V131.328H645.422V170.578ZM640.161 110.688C643.964 110.688 647.042 113.604 647.042 117.406C647.042 121.208 643.964 124.125 640.161 124.125C636.359 124.125 633.281 121.208 633.281 117.406C633.281 113.604 636.359 110.688 640.161 110.688Z" fill="white"/>
<path d="M680.297 145.896C679.974 142.417 676.818 139.016 672.526 139.016C668.156 139.016 664.594 142.333 664.109 145.896H680.297ZM690.088 164.349C686.286 168.88 680.052 171.391 673.984 171.391C662.25 171.391 653.427 163.297 653.427 150.995C653.427 140.068 660.875 130.516 672.526 130.516C683.37 130.516 691.057 139.661 691.057 150.589C691.057 151.641 690.979 152.693 690.818 153.583H663.625C664.193 159.089 668.641 162.891 674.224 162.891C678.677 162.891 682.24 160.38 684.099 158.359L690.088 164.349Z" fill="white"/>
<path d="M723.354 140.634C722.62 140.389 721.083 140.228 719.547 140.228C714.938 140.228 711.292 143.551 709.995 145.895V170.577H699.479V131.327H709.594V135.29C711.938 132.379 716.229 130.52 721 130.52C722.542 130.52 723.432 130.676 724.563 130.842L723.354 140.634Z" fill="white"/>
</svg>
