<svg width="1096" height="510" viewBox="0 0 1096 510" fill="none" xmlns="http://www.w3.org/2000/svg">
<rect width="1096" height="510" fill="white"/>
<path fill-rule="evenodd" clip-rule="evenodd" d="M98.5215 358.694V90.543H154.12C194.225 90.543 223.334 93.7669 241.438 100.204C267.449 109.319 287.74 125.121 302.324 147.6C317.032 170.085 324.381 196.882 324.381 227.991C324.381 254.85 318.548 278.486 306.881 298.902C295.339 319.319 280.266 334.392 261.673 344.111C243.204 353.835 217.256 358.694 183.834 358.694H98.5215ZM124.225 333.355H155.214C192.282 333.355 217.985 331.048 232.324 326.428C252.501 319.866 268.36 308.079 279.902 291.064C291.449 273.928 297.219 253.027 297.219 228.355C297.219 202.47 290.964 180.355 278.443 162.001C265.928 143.652 248.49 131.074 226.126 124.267C209.355 119.163 181.709 116.611 143.183 116.611H124.225V333.355Z" fill="#030303"/>
<path fill-rule="evenodd" clip-rule="evenodd" d="M518.75 88C559.339 88 593.307 101.552 620.651 128.651C647.995 155.75 661.667 189.109 661.667 228.729C661.667 267.984 647.995 301.281 620.651 328.625C593.427 355.969 560.193 369.641 520.938 369.641C481.198 369.641 447.656 356.031 420.313 328.807C392.969 301.583 379.297 268.651 379.297 230.005C379.297 204.24 385.495 180.359 397.891 158.365C410.406 136.37 427.422 119.172 448.932 106.776C470.443 94.2604 493.714 88 518.75 88ZM520.026 114.25C500.219 114.25 481.443 119.417 463.698 129.745C445.953 140.073 432.099 153.99 422.135 171.49C412.172 188.99 407.188 208.495 407.188 230.005C407.188 261.844 418.188 288.766 440.182 310.76C462.302 332.635 488.917 343.573 520.026 343.573C540.807 343.573 560.01 338.531 577.63 328.443C595.375 318.354 609.167 304.563 619.01 287.063C628.974 269.563 633.958 250.12 633.958 228.729C633.958 207.464 628.974 188.26 619.01 171.125C609.167 153.87 595.25 140.073 577.266 129.745C559.281 119.417 540.198 114.25 520.026 114.25Z" fill="#030303"/>
<path fill-rule="evenodd" clip-rule="evenodd" d="M720.271 359.296L758.37 91.1445H762.745L871.756 311.171L979.673 91.1445H984.048L1022.51 359.296H996.079L969.829 167.525L875.037 359.296H868.292L772.225 166.066L746.157 359.296H720.271Z" fill="#030303"/>
<mask id="mask0_1767_82" style="mask-type:luminance" maskUnits="userSpaceOnUse" x="13" y="304" width="1064" height="80">
<path d="M13 304H1076.54V384H13V304Z" fill="white"/>
</mask>
<g mask="url(#mask0_1767_82)">
<path fill-rule="evenodd" clip-rule="evenodd" d="M13 304.078H1076.54V383.302H13V304.078Z" fill="white"/>
</g>
<path d="M731.666 422.391L740.666 358.953H741.708L767.499 411.016L793.02 358.953H794.062L803.166 422.391H796.895L790.687 377.036L768.27 422.391H766.687L743.958 376.682L737.791 422.391H731.666Z" fill="black"/>
<path d="M836.933 374.267C844.141 374.267 850.12 376.887 854.87 382.121C859.173 386.887 861.329 392.533 861.329 399.059C861.329 405.616 859.048 411.345 854.495 416.246C849.938 421.152 844.084 423.6 836.933 423.6C829.735 423.6 823.86 421.152 819.308 416.246C814.751 411.345 812.475 405.616 812.475 399.059C812.475 392.559 814.631 386.928 818.954 382.163C823.688 376.902 829.683 374.267 836.933 374.267ZM836.933 380.184C831.933 380.184 827.631 382.038 824.037 385.746C820.438 389.454 818.641 393.934 818.641 399.184C818.641 402.59 819.459 405.757 821.1 408.684C822.735 411.616 824.954 413.882 827.745 415.475C830.537 417.074 833.6 417.871 836.933 417.871C840.266 417.871 843.318 417.074 846.1 415.475C848.891 413.882 851.105 411.616 852.745 408.684C854.381 405.757 855.204 402.59 855.204 399.184C855.204 393.934 853.396 389.454 849.787 385.746C846.188 382.038 841.902 380.184 836.933 380.184ZM828.12 356.934C829.506 356.934 830.688 357.428 831.662 358.413C832.631 359.387 833.12 360.559 833.12 361.934C833.12 363.309 832.631 364.491 831.662 365.475C830.688 366.449 829.506 366.934 828.12 366.934C826.745 366.934 825.563 366.449 824.579 365.475C823.605 364.491 823.12 363.309 823.12 361.934C823.12 360.559 823.605 359.387 824.579 358.413C825.563 357.428 826.745 356.934 828.12 356.934ZM845.725 356.934C847.1 356.934 848.271 357.428 849.245 358.413C850.23 359.387 850.725 360.559 850.725 361.934C850.725 363.309 850.23 364.491 849.245 365.475C848.271 366.449 847.1 366.934 845.725 366.934C844.334 366.934 843.152 366.449 842.183 365.475C841.209 364.491 840.725 363.309 840.725 361.934C840.725 360.559 841.209 359.387 842.183 358.413C843.152 357.428 844.334 356.934 845.725 356.934Z" fill="black"/>
<path d="M872.947 422.392V357.371H878.926V383.538C881.452 380.444 884.286 378.121 887.426 376.579C890.562 375.038 893.999 374.267 897.739 374.267C904.374 374.267 910.041 376.678 914.739 381.496C919.447 386.303 921.801 392.142 921.801 399.017C921.801 405.809 919.426 411.611 914.676 416.413C909.937 421.204 904.229 423.6 897.551 423.6C893.729 423.6 890.265 422.777 887.156 421.142C884.057 419.507 881.312 417.048 878.926 413.767V422.392H872.947ZM897.093 417.788C900.452 417.788 903.557 416.965 906.406 415.309C909.249 413.642 911.515 411.319 913.197 408.329C914.874 405.345 915.718 402.184 915.718 398.85C915.718 395.517 914.869 392.345 913.176 389.329C911.479 386.303 909.202 383.949 906.343 382.267C903.479 380.59 900.426 379.746 897.176 379.746C893.869 379.746 890.723 380.59 887.739 382.267C884.765 383.949 882.479 386.215 880.885 389.059C879.301 391.908 878.51 395.116 878.51 398.684C878.51 404.116 880.291 408.658 883.864 412.309C887.447 415.965 891.854 417.788 897.093 417.788Z" fill="black"/>
<path d="M972.297 406.828L977.38 409.495C975.714 412.776 973.781 415.422 971.589 417.432C969.406 419.448 966.948 420.984 964.214 422.036C961.49 423.078 958.406 423.599 954.964 423.599C947.307 423.599 941.323 421.094 937.005 416.078C932.698 411.068 930.547 405.391 930.547 399.057C930.547 393.115 932.37 387.807 936.026 383.141C940.651 377.224 946.844 374.266 954.609 374.266C962.609 374.266 968.99 377.302 973.755 383.37C977.141 387.651 978.87 392.995 978.943 399.411H936.755C936.88 404.87 938.62 409.349 941.984 412.849C945.344 416.339 949.495 418.078 954.443 418.078C956.828 418.078 959.151 417.661 961.401 416.828C963.661 415.995 965.578 414.891 967.151 413.516C968.734 412.13 970.448 409.901 972.297 406.828ZM972.297 394.182C971.49 390.974 970.318 388.406 968.776 386.474C967.234 384.547 965.198 382.99 962.672 381.807C960.141 380.63 957.484 380.036 954.693 380.036C950.094 380.036 946.141 381.526 942.839 384.495C940.422 386.651 938.594 389.88 937.359 394.182H972.297Z" fill="black"/>
<path d="M989.281 357.371H995.323V422.392H989.281V357.371Z" fill="black"/>
<path d="M1014.52 412.91C1015.98 412.91 1017.22 413.431 1018.25 414.473C1019.29 415.504 1019.81 416.759 1019.81 418.243C1019.81 419.717 1019.29 420.983 1018.25 422.035C1017.22 423.077 1015.98 423.598 1014.52 423.598C1013.05 423.598 1011.79 423.077 1010.75 422.035C1009.72 420.983 1009.21 419.717 1009.21 418.243C1009.21 416.759 1009.72 415.504 1010.75 414.473C1011.79 413.431 1013.05 412.91 1014.52 412.91Z" fill="black"/>
<path d="M445.391 357.371C455.001 357.371 463.037 360.579 469.495 366.996C475.964 373.402 479.204 381.288 479.204 390.663C479.204 399.944 475.975 407.819 469.516 414.288C463.068 420.762 455.204 423.996 445.912 423.996C436.506 423.996 428.568 420.777 422.1 414.329C415.641 407.887 412.412 400.095 412.412 390.954C412.412 384.861 413.881 379.215 416.829 374.017C419.771 368.809 423.787 364.736 428.87 361.788C433.964 358.845 439.475 357.371 445.391 357.371ZM445.704 363.579C441.021 363.579 436.579 364.803 432.37 367.246C428.173 369.694 424.896 372.986 422.537 377.121C420.188 381.262 419.016 385.871 419.016 390.954C419.016 398.486 421.62 404.845 426.829 410.038C432.048 415.236 438.339 417.829 445.704 417.829C450.62 417.829 455.167 416.637 459.35 414.246C463.527 411.861 466.792 408.595 469.141 404.454C471.485 400.319 472.662 395.72 472.662 390.663C472.662 385.621 471.485 381.074 469.141 377.017C466.792 372.949 463.495 369.694 459.245 367.246C454.995 364.803 450.48 363.579 445.704 363.579Z" fill="black"/>
<path d="M491.344 422.392V357.371H497.323V383.538C499.849 380.444 502.682 378.121 505.823 376.579C508.958 375.038 512.396 374.267 516.135 374.267C522.771 374.267 528.438 376.678 533.135 381.496C537.844 386.303 540.198 392.142 540.198 399.017C540.198 405.809 537.823 411.611 533.073 416.413C528.333 421.204 522.625 423.6 515.948 423.6C512.125 423.6 508.661 422.777 505.552 421.142C502.453 419.507 499.708 417.048 497.323 413.767V422.392H491.344ZM515.49 417.788C518.849 417.788 521.953 416.965 524.802 415.309C527.646 413.642 529.911 411.319 531.594 408.329C533.271 405.345 534.115 402.184 534.115 398.85C534.115 395.517 533.266 392.345 531.573 389.329C529.875 386.303 527.599 383.949 524.74 382.267C521.875 380.59 518.823 379.746 515.573 379.746C512.266 379.746 509.12 380.59 506.135 382.267C503.161 383.949 500.875 386.215 499.281 389.059C497.698 391.908 496.906 395.116 496.906 398.684C496.906 404.116 498.687 408.658 502.26 412.309C505.844 415.965 510.25 417.788 515.49 417.788Z" fill="black"/>
<mask id="mask1_1767_82" style="mask-type:luminance" maskUnits="userSpaceOnUse" x="541" y="356" width="19" height="85">
<path d="M541 356H559.667V440.766H541V356Z" fill="white"/>
</mask>
<g mask="url(#mask1_1767_82)">
<path d="M553.442 356.16C554.817 356.16 555.984 356.65 556.942 357.618C557.911 358.592 558.4 359.775 558.4 361.16C558.4 362.509 557.911 363.676 556.942 364.66C555.984 365.634 554.817 366.118 553.442 366.118C552.051 366.118 550.869 365.634 549.9 364.66C548.942 363.676 548.463 362.509 548.463 361.16C548.463 359.775 548.942 358.592 549.9 357.618C550.869 356.65 552.051 356.16 553.442 356.16ZM550.463 375.473H556.588V429.452C556.588 433.395 555.869 436.264 554.442 438.056C553.025 439.858 551.077 440.764 548.609 440.764C546.567 440.764 544.27 440.27 541.713 439.285V433.868C543.312 434.702 544.76 435.118 546.067 435.118C547.702 435.118 548.926 434.436 549.734 433.077C550.218 432.212 550.463 430.421 550.463 427.702V375.473Z" fill="black"/>
</g>
<path d="M608.631 406.828L613.714 409.495C612.048 412.776 610.115 415.422 607.923 417.432C605.74 419.448 603.282 420.984 600.548 422.036C597.824 423.078 594.74 423.599 591.298 423.599C583.641 423.599 577.657 421.094 573.339 416.078C569.032 411.068 566.881 405.391 566.881 399.057C566.881 393.115 568.704 387.807 572.36 383.141C576.985 377.224 583.178 374.266 590.943 374.266C598.943 374.266 605.324 377.302 610.089 383.37C613.475 387.651 615.204 392.995 615.277 399.411H573.089C573.214 404.87 574.954 409.349 578.318 412.849C581.678 416.339 585.829 418.078 590.777 418.078C593.162 418.078 595.485 417.661 597.735 416.828C599.995 415.995 601.912 414.891 603.485 413.516C605.068 412.13 606.782 409.901 608.631 406.828ZM608.631 394.182C607.824 390.974 606.652 388.406 605.11 386.474C603.568 384.547 601.532 382.99 599.006 381.807C596.475 380.63 593.818 380.036 591.027 380.036C586.428 380.036 582.475 381.526 579.173 384.495C576.756 386.651 574.928 389.88 573.693 394.182H608.631Z" fill="black"/>
<path d="M626.49 357.371H632.574V394.371L654.261 375.475H663.136L637.386 397.85L664.657 422.392H656.115L632.574 401.309V422.392H626.49V357.371Z" fill="black"/>
<path d="M676.11 358.059H682.193V375.475H691.777V380.642H682.193V422.392H676.11V380.642H667.881V375.475H676.11V358.059Z" fill="black"/>
<path d="M707.438 412.91C708.896 412.91 710.135 413.431 711.167 414.473C712.208 415.504 712.729 416.759 712.729 418.243C712.729 419.717 712.208 420.983 711.167 422.035C710.135 423.077 708.896 423.598 707.438 423.598C705.964 423.598 704.708 423.077 703.667 422.035C702.635 420.983 702.125 419.717 702.125 418.243C702.125 416.759 702.635 415.504 703.667 414.473C704.708 413.431 705.964 412.91 707.438 412.91Z" fill="black"/>
<path d="M97.7402 422.391V358.953H110.907C120.391 358.953 127.271 359.719 131.553 361.245C137.704 363.401 142.511 367.135 145.969 372.453C149.438 377.776 151.178 384.115 151.178 391.474C151.178 397.823 149.803 403.411 147.053 408.245C144.313 413.078 140.751 416.651 136.365 418.953C131.975 421.245 125.829 422.391 117.928 422.391H97.7402ZM103.824 416.391H111.157C119.933 416.391 126.016 415.849 129.407 414.766C134.167 413.214 137.917 410.411 140.657 406.37C143.391 402.328 144.761 397.391 144.761 391.557C144.761 385.432 143.271 380.203 140.303 375.87C137.344 371.526 133.219 368.547 127.928 366.932C123.969 365.724 117.433 365.12 108.324 365.12H103.824V416.391Z" fill="black"/>
<path d="M201.984 406.828L207.068 409.495C205.401 412.776 203.469 415.422 201.276 417.432C199.094 419.448 196.635 420.984 193.901 422.036C191.177 423.078 188.094 423.599 184.651 423.599C176.995 423.599 171.01 421.094 166.693 416.078C162.385 411.068 160.234 405.391 160.234 399.057C160.234 393.115 162.057 387.807 165.714 383.141C170.339 377.224 176.531 374.266 184.297 374.266C192.297 374.266 198.677 377.302 203.443 383.37C206.828 387.651 208.557 392.995 208.63 399.411H166.443C166.568 404.87 168.307 409.349 171.672 412.849C175.031 416.339 179.182 418.078 184.13 418.078C186.516 418.078 188.839 417.661 191.089 416.828C193.349 415.995 195.266 414.891 196.839 413.516C198.422 412.13 200.135 409.901 201.984 406.828ZM201.984 394.182C201.177 390.974 200.005 388.406 198.464 386.474C196.922 384.547 194.885 382.99 192.359 381.807C189.828 380.63 187.172 380.036 184.38 380.036C179.781 380.036 175.828 381.526 172.526 384.495C170.109 386.651 168.281 389.88 167.047 394.182H201.984Z" fill="black"/>
<path d="M243.204 380.599L239.329 384.62C236.105 381.484 232.959 379.911 229.891 379.911C227.933 379.911 226.251 380.568 224.85 381.87C223.459 383.161 222.766 384.672 222.766 386.391C222.766 387.906 223.339 389.359 224.495 390.745C225.646 392.151 228.063 393.802 231.745 395.703C236.214 398.026 239.256 400.266 240.87 402.432C242.454 404.615 243.245 407.073 243.245 409.807C243.245 413.656 241.891 416.922 239.183 419.599C236.485 422.266 233.11 423.599 229.058 423.599C226.36 423.599 223.787 423.005 221.329 421.828C218.87 420.651 216.834 419.026 215.225 416.953L219.016 412.641C222.084 416.13 225.35 417.87 228.808 417.87C231.225 417.87 233.277 417.094 234.975 415.536C236.667 413.984 237.516 412.156 237.516 410.057C237.516 408.339 236.954 406.802 235.829 405.453C234.704 404.12 232.173 402.448 228.245 400.432C224.021 398.255 221.146 396.099 219.62 393.974C218.089 391.849 217.329 389.422 217.329 386.682C217.329 383.13 218.542 380.172 220.975 377.807C223.402 375.448 226.475 374.266 230.183 374.266C234.485 374.266 238.829 376.38 243.204 380.599Z" fill="black"/>
<path d="M256.005 356.16C257.391 356.16 258.573 356.65 259.547 357.618C260.516 358.592 261.005 359.775 261.005 361.16C261.005 362.509 260.516 363.676 259.547 364.66C258.573 365.634 257.391 366.118 256.005 366.118C254.656 366.118 253.49 365.634 252.505 364.66C251.531 363.676 251.047 362.509 251.047 361.16C251.047 359.775 251.531 358.592 252.505 357.618C253.49 356.65 254.656 356.16 256.005 356.16ZM252.984 375.473H259.068V422.389H252.984V375.473Z" fill="black"/>
<mask id="mask2_1767_82" style="mask-type:luminance" maskUnits="userSpaceOnUse" x="269" y="373" width="50" height="68">
<path d="M269 373.332H318.333V440.764H269V373.332Z" fill="white"/>
</mask>
<g mask="url(#mask2_1767_82)">
<path d="M311.979 375.474H318.062V412.87C318.062 419.453 317.484 424.266 316.333 427.307C314.76 431.609 312.02 434.932 308.104 437.266C304.197 439.599 299.499 440.766 293.999 440.766C289.968 440.766 286.354 440.193 283.145 439.057C279.947 437.917 277.343 436.391 275.333 434.474C273.317 432.568 271.463 429.776 269.77 426.099H276.333C278.109 429.208 280.406 431.505 283.229 432.995C286.046 434.495 289.541 435.245 293.708 435.245C297.817 435.245 301.281 434.474 304.104 432.932C306.937 431.391 308.958 429.453 310.166 427.12C311.374 424.797 311.979 421.052 311.979 415.87V413.474C309.713 416.349 306.942 418.557 303.666 420.099C300.385 421.63 296.906 422.391 293.229 422.391C288.906 422.391 284.854 421.323 281.062 419.182C277.27 417.047 274.338 414.161 272.27 410.536C270.197 406.911 269.166 402.927 269.166 398.578C269.166 394.245 270.239 390.203 272.395 386.453C274.546 382.703 277.525 379.74 281.333 377.557C285.15 375.365 289.171 374.266 293.395 374.266C296.906 374.266 300.176 374.995 303.208 376.453C306.234 377.901 309.156 380.286 311.979 383.62V375.474ZM294.166 380.099C290.749 380.099 287.572 380.927 284.645 382.578C281.713 384.234 279.416 386.516 277.749 389.432C276.083 392.349 275.249 395.505 275.249 398.891C275.249 404.031 276.968 408.286 280.416 411.661C283.874 415.026 288.343 416.703 293.833 416.703C299.374 416.703 303.833 415.036 307.208 411.703C310.593 408.37 312.291 403.984 312.291 398.536C312.291 395.01 311.51 391.859 309.958 389.078C308.4 386.302 306.197 384.115 303.354 382.516C300.505 380.906 297.442 380.099 294.166 380.099Z" fill="black"/>
</g>
<path d="M331.01 375.474H337.051V383.891C339.468 380.672 342.14 378.26 345.072 376.661C347.999 375.068 351.187 374.266 354.635 374.266C358.145 374.266 361.26 375.161 363.968 376.953C366.687 378.734 368.697 381.13 369.989 384.141C371.281 387.156 371.926 391.859 371.926 398.245V422.391H365.926V400.016C365.926 394.615 365.697 391.005 365.239 389.182C364.531 386.089 363.182 383.755 361.197 382.182C359.208 380.615 356.619 379.828 353.426 379.828C349.77 379.828 346.499 381.036 343.614 383.453C340.723 385.87 338.822 388.859 337.906 392.411C337.333 394.745 337.051 399.005 337.051 405.182V422.391H331.01V375.474Z" fill="black"/>
<path d="M391.516 412.91C392.974 412.91 394.214 413.431 395.245 414.473C396.286 415.504 396.807 416.759 396.807 418.243C396.807 419.717 396.286 420.983 395.245 422.035C394.214 423.077 392.974 423.598 391.516 423.598C390.042 423.598 388.786 423.077 387.745 422.035C386.714 420.983 386.203 419.717 386.203 418.243C386.203 416.759 386.714 415.504 387.745 414.473C388.786 413.431 390.042 412.91 391.516 412.91Z" fill="black"/>
</svg>
