<svg width="1524" height="1060" viewBox="0 0 1524 1060" fill="none" xmlns="http://www.w3.org/2000/svg">
<path d="M0 686.372V298.098H48.9606V639.84H142.96V686.372H0Z" fill="white"/>
<path d="M239.901 553.852H294.656L267.982 391.204H266.576L239.901 553.852ZM170.359 686.373L242.116 295.883H292.995L364.198 686.373H316.943L303.307 600.383H232.657L217.658 686.373H170.359Z" fill="white"/>
<path d="M381.328 298.098H430.245V589.644C430.245 626.503 442.22 644.954 466.124 644.954C476.692 644.954 485.342 640.309 491.989 631.062C498.679 621.773 502.003 608.734 502.003 591.903V298.098H551.006V586.491C551.006 620.537 542.526 646.53 525.652 664.555C508.821 682.494 488.964 691.485 466.124 691.485C441.836 691.485 421.638 682.111 405.531 663.362C389.381 644.655 381.328 620.324 381.328 590.454V298.098Z" fill="white"/>
<path d="M628.133 686.372V344.672H569.756V298.098H735.514V344.672H677.094V686.372H628.133Z" fill="white"/>
<path d="M756.521 686.372H805.482V298.098H756.521V686.372Z" fill="white"/>
<path d="M838.165 676.444V624.799C852.823 638.989 867.012 646.105 880.733 646.105C890.917 646.105 899.653 642.398 906.854 635.111C914.099 627.782 917.72 618.961 917.72 608.607C917.72 599.744 915.675 588.963 911.584 576.265C907.493 563.567 896.542 540.173 878.645 505.999C860.749 471.867 849.115 446.002 843.747 428.404C838.335 410.805 835.65 395.294 835.65 381.829C835.65 355.751 842.937 334.403 857.51 317.827C872.04 301.294 890.662 293.027 913.288 293.027C926.072 293.027 939.708 296.436 954.153 303.254V350.34C940.773 342.371 929.395 338.451 919.936 338.451C895.264 338.451 882.949 350.723 882.949 375.31C882.949 384.429 885.037 395.337 889.213 408.078C893.389 420.861 904.382 444.17 922.322 477.918C940.176 511.709 951.766 537.403 957.05 555.087C962.377 572.813 964.976 588.452 964.976 602.087C964.976 628.549 957.732 650.11 943.159 666.643C928.586 683.219 909.752 691.486 886.571 691.486C869.867 691.486 853.761 686.458 838.165 676.444Z" fill="white"/>
<path d="M980.444 676.444V624.799C995.102 638.989 1009.29 646.105 1022.97 646.105C1033.2 646.105 1041.89 642.398 1049.13 635.111C1056.38 627.782 1059.96 618.961 1059.96 608.607C1059.96 599.744 1057.95 588.963 1053.86 576.265C1049.77 563.567 1038.82 540.173 1020.88 505.999C1002.98 471.867 991.395 446.002 985.983 428.404C980.615 410.805 977.93 395.294 977.93 381.829C977.93 355.751 985.217 334.403 999.747 317.827C1014.32 301.294 1032.9 293.027 1055.53 293.027C1068.35 293.027 1081.94 296.436 1096.43 303.254V350.34C1083.05 342.371 1071.68 338.451 1062.21 338.451C1037.54 338.451 1025.23 350.723 1025.23 375.31C1025.23 384.429 1027.32 395.337 1031.49 408.078C1035.63 420.861 1046.66 444.17 1064.56 477.918C1082.46 511.709 1094.05 537.403 1099.33 555.087C1104.61 572.813 1107.26 588.452 1107.26 602.087C1107.26 628.549 1099.97 650.11 1085.44 666.643C1070.86 683.219 1051.99 691.486 1028.81 691.486C1012.15 691.486 995.997 686.458 980.444 676.444Z" fill="white"/>
<path d="M1136.32 686.372H1185.28V298.098H1136.32V686.372Z" fill="white"/>
<path d="M1330.07 440.59L1386.53 298.098H1428.5V686.372H1380.69L1383.72 405.691L1382.35 404.541L1334.5 532.289H1325.59L1277.78 404.541L1276.34 405.691L1279.4 686.372H1231.59V298.098H1273.57L1330.07 440.59Z" fill="white"/>
<path d="M1474.82 686.372H1523.78V298.098H1474.82V686.372Z" fill="white"/>
<path d="M1332.48 489.534C1331.08 492.734 1329.41 496.534 1327.65 501C1321.92 515.331 1320.62 529.429 1319.35 543.06C1317.65 561.391 1316.08 578.689 1304.22 595.487C1291.19 613.984 1274.29 624.583 1256.42 635.815C1242.83 644.347 1228.76 653.179 1216.66 665.711C1212.8 669.743 1209.36 673.876 1206 677.876C1194.8 691.274 1185.13 702.872 1165.74 702.872C1139.61 702.872 1122.31 708.371 1101.15 716.07C1077.12 721.103 1058.08 731.268 1039.65 741.134C1023.56 749.733 1006.93 758.665 987.028 763.897C966.697 770.13 943.5 773.829 925.069 773.829C921.436 773.829 917.87 773.696 914.437 773.396C907.105 772.73 903.906 775.063 901.006 777.062C897.773 779.295 894.74 781.162 885.208 779.729C882.441 779.295 879.709 779.096 877.076 779.096C874.709 779.096 872.543 779.362 870.377 779.662C868.777 770.796 863.677 763.098 856.478 757.665C859.611 756.498 862.078 754.765 863.944 752.266C871.344 742.4 879.709 732.902 887.808 723.736C896.74 713.571 905.972 703.072 914.07 691.907C924.703 677.209 934.235 663.544 943.4 650.446C960.731 625.583 977.096 602.119 996.859 577.889C1020.36 549.16 1059.18 510.665 1110.88 490.734C1159.74 471.904 1203.26 466.371 1244.19 473.737C1251.29 475.003 1259.22 475.637 1268.39 475.637C1276.19 475.637 1284.09 475.203 1291.75 474.77C1299.25 474.337 1307.02 473.903 1314.25 473.903C1325.45 474.703 1335.15 475.37 1336.38 477.236C1337.31 478.569 1335.05 483.669 1332.48 489.534ZM831.716 816.057C813.518 816.057 798.72 802.392 798.72 785.594C798.72 768.797 813.518 755.132 831.716 755.132C849.913 755.132 864.711 768.797 864.711 785.594C864.711 802.392 849.913 816.057 831.716 816.057ZM821.25 831.655L820.184 834.388C814.684 870.983 812.285 910.844 831.749 954.438C832.882 971.703 840.681 988.234 848.213 1004.23C850.613 1009.36 853.012 1014.43 855.112 1019.4C859.045 1028.66 858.245 1039.06 853.146 1045.96C850.613 1049.33 845.98 1053.32 838.014 1053.32C835.715 1053.32 833.248 1052.99 830.715 1052.29C825.783 1050.99 822.75 1049.23 821.483 1046.96C819.55 1043.56 821.547 1038.36 823.583 1032.83C825.316 1028.26 827.116 1023.5 827.216 1018.66C827.516 1006.2 822.95 994.299 818.483 982.834C816.184 976.835 813.784 970.669 812.218 964.604C808.085 949.072 805.886 933.674 803.753 918.776C800.286 894.68 797.02 871.883 786.355 849.186C769.424 812.991 733.695 784.561 693.3 775.063C669.704 768.03 637.775 759.265 600.813 749.066C586.615 745.167 571.851 741.101 556.852 736.934C468.231 712.371 371.878 682.642 329.25 648.513C314.485 636.681 292.322 614.251 278.99 599.153C262.626 580.656 257.693 558.492 252.927 531.429C251.161 521.497 245.195 509.499 238.862 496.834C234.829 488.801 230.863 480.736 227.931 473.203C230.597 470.437 234.263 469.237 238.229 468.038C243.528 466.404 248.161 464.571 251.028 460.739C328.75 494.401 425.104 571.457 510.226 639.581C578.35 694.107 637.208 741.201 672.237 754.465C672.634 754.599 673.036 754.665 673.437 754.665C674.703 754.665 675.87 753.999 676.37 752.865C677.036 751.366 676.268 749.699 674.67 749.066C640.575 736.201 582.082 689.407 514.392 635.215C428.87 566.757 332.05 489.334 253.461 455.372C254.493 451.106 254.227 445.24 252.194 437.108C263.926 435.242 277.157 434.209 291.489 434.209C318.151 434.209 347.247 437.475 371.311 443.207C407.139 451.739 453.533 465.104 494.927 493.101C549.587 530.062 582.849 580.889 618.011 634.748C634.176 659.411 650.84 684.908 669.704 708.805C689.535 733.935 742.361 789.027 779.056 798.926L781.855 799.692L782.922 797.159C785.188 791.626 784.355 775.129 782.055 750.432C794.453 744.266 802.953 732.501 802.953 718.903C802.953 703.005 791.487 689.64 775.623 684.741C774.756 674.276 774.257 665.343 774.59 660.011C775.723 640.447 774.257 621.049 756.092 612.151C748.026 608.251 740.228 608.818 733.095 609.051C731.262 609.12 729.396 609.184 727.863 609.184C719.731 608.518 713.398 601.352 707.232 594.42C704.766 591.687 702.366 588.987 699.867 586.621C691.401 578.722 681.069 574.489 671.071 570.423C661.705 566.623 652.873 563.024 645.407 556.591C641.274 553.025 637.275 548.959 633.409 544.993C624.143 535.594 614.578 525.829 601.313 520.929C594.381 518.33 587.415 516.397 580.683 514.497C567.018 510.664 554.119 507.031 542.088 498.666C529.656 489.967 521.091 478.635 511.992 466.637C505.726 458.371 499.26 449.806 491.395 442.174C482.029 433.108 469.598 426.176 457.633 419.443C435.136 406.812 413.905 394.88 409.239 369.783C407.339 359.485 405.173 349.186 402.974 338.854C396.507 308.158 389.809 276.396 390.209 244.434C390.209 239.034 389.409 233.035 388.609 226.736C387.009 214.171 385.309 201.173 389.475 191.607C391.142 187.808 392.875 185.875 394.675 185.875C398.174 185.875 404.14 191.274 410.439 197.04C417.105 203.106 425.437 210.638 435.269 216.071C459.932 229.602 480.929 235.635 501.26 241.467C519.624 246.733 536.955 251.733 554.153 261.965C564.951 268.364 566.651 274.596 568.185 280.095C570.317 287.928 572.883 293.094 588.549 293.094H589.915C605.746 293.094 618.844 310.325 629.343 324.223L631.642 327.256C636.175 334.455 641.874 341.121 647.407 347.553C654.439 355.819 661.738 364.351 666.271 373.749C668.104 377.549 667.904 381.982 667.704 386.614C667.474 391.814 667.237 397.18 669.837 402.279L674.937 407.612C681.269 413.911 687.802 420.443 693.368 427.476C702.566 439.041 706.232 453.372 710.098 468.537C714.531 485.968 719.131 503.965 732.762 517.963C743.927 529.395 749.093 542.193 749.093 558.158L749.292 559.158C751.225 564.124 752.524 572.989 753.658 580.788C754.924 589.52 755.724 594.519 757.057 596.853C758.924 600.019 761.756 601.852 764.79 603.852C766.722 605.085 768.722 606.385 770.555 608.118L774.988 612.25L775.955 606.518C779.754 583.688 774.155 511.064 772.221 504.299C762.223 469.17 746.459 433.741 731.194 399.546L725.494 386.748C722.362 379.715 719.129 372.716 715.896 365.717C702.664 337.221 689.033 307.758 684.2 276.263C682.834 267.197 681.401 259.165 680.068 251.666C676.168 229.636 673.101 212.238 673.969 186.342C674.802 161.512 689.466 137.115 703.598 113.518C711.096 101.053 718.162 89.2547 723.062 77.6895C729.328 62.8583 737.726 55.4593 748.291 46.1272C751.158 43.5609 754.157 40.9612 757.29 37.9949C760.556 34.8953 762.656 31.2626 764.39 27.5297C766.256 27.7632 768.122 27.9629 770.055 27.9629C773.121 27.9629 776.288 27.6628 779.588 26.963C785.187 25.7966 791.719 22.3637 795.885 17.331C803.284 27.7963 808.017 43.7608 812.383 58.5588C813.783 63.2582 815.149 67.8575 816.549 72.1569C821.949 88.788 833.214 102.086 844.112 114.951C853.978 126.616 864.209 138.681 869.609 152.946C878.774 177.209 882.173 196.24 881.773 221.003C881.473 238.334 877.541 255.832 873.741 272.763C870.442 287.461 867.009 302.692 866.009 317.724C864.276 342.72 853.344 376.716 844.512 398.246C838.213 413.644 831.08 437.307 824.781 458.205C819.382 476.135 813.816 494.666 811.283 498.066C789.653 547.792 784.12 622.016 797.519 682.841L798.05 685.141H800.649C822.046 685.141 836.311 632.281 847.443 580.555C848.209 576.955 848.843 574.022 849.343 571.989C855.275 546.793 866.307 487.767 874.34 444.706C878.839 420.61 882.405 401.579 883.771 395.246C891.004 371.716 898.669 351.552 907.135 333.588C922.933 300.026 950.162 255.732 990.09 235.501C1011.49 224.636 1035.12 218.37 1057.95 212.271C1076.45 207.339 1095.58 202.239 1113.77 194.707L1115.87 193.807C1120.87 191.607 1131.27 187.108 1137.77 187.108C1141.07 187.108 1141.5 188.274 1141.57 188.274C1141.51 189.474 1140 196.173 1139.07 200.14C1137.74 205.839 1137.54 206.905 1137.54 207.572C1137.54 220.903 1141.97 226.536 1148.14 234.335C1149.27 235.801 1150.5 237.335 1151.8 239.034C1161.83 252.399 1151.73 273.03 1143 282.928C1134.7 292.36 1137.37 303.959 1139.94 315.224C1141.77 323.256 1143.5 330.822 1141.44 337.454C1129.24 376.516 1075.78 432.941 1058.01 449.639C1048.25 458.805 1038.85 467.97 1029.49 477.069C1006.49 499.566 984.725 520.763 959.061 540.727C911.935 577.322 877.772 615.35 854.575 656.978L851.543 662.41C841.344 680.608 830.812 699.405 823.913 719.469C823.113 721.736 821.746 724.469 820.313 727.368C816.214 735.634 811.648 744.999 814.68 753.065C801.549 758.931 792.384 771.262 792.384 785.594C792.384 803.724 806.915 818.656 825.779 821.322C824.113 824.955 822.58 828.488 821.246 831.654M225.261 448.174C227.161 444.341 230.927 441.741 236.759 440.208C239.626 439.442 242.792 438.808 245.958 438.175C251.058 457.906 244.825 459.905 236.26 462.505C232.826 463.538 229.094 464.771 225.828 467.071C223.561 459.639 222.861 453.006 225.258 448.174M762.552 749.333C743.788 749.333 728.524 735.668 728.524 718.904C728.524 702.106 743.788 688.441 762.552 688.441C781.35 688.441 796.648 702.106 796.648 718.904C796.648 735.668 781.35 749.333 762.552 749.333ZM777.484 6.00018C778.183 6.06678 778.984 6.03208 779.817 6.03208C784.516 6.73196 788.482 9.09828 791.948 12.5978C788.982 17.0306 783.083 20.2634 778.184 21.2966C774.184 22.1299 770.418 22.2299 766.818 21.9301C766.888 21.797 766.92 21.63 766.984 21.5302C769.584 14.9644 771.85 9.26518 777.484 5.99894M1341.77 474.169C1338.81 469.803 1331.27 469.27 1314.48 468.103C1306.81 468.103 1298.98 468.536 1291.38 468.97C1283.78 469.369 1275.98 469.803 1268.38 469.803C1259.65 469.803 1252.12 469.237 1245.39 468.003C1203.23 460.438 1158.5 466.07 1108.41 485.401C1055.41 505.798 1015.75 545.093 991.821 574.422C971.924 598.786 955.459 622.349 938.061 647.312C928.929 660.377 919.43 674.009 908.799 688.674C900.866 699.605 891.701 710.037 882.869 720.069C874.704 729.335 866.305 738.933 858.739 748.999C856.839 751.532 853.706 752.898 849.207 753.298C843.908 750.832 838.008 749.332 831.709 749.332C828.776 749.332 825.944 749.699 823.177 750.265C822.21 750.099 821.111 749.865 820.211 749.732C819.044 744 822.744 736.501 826.077 729.801C827.577 726.735 829.043 723.802 829.943 721.203C836.676 701.639 847.107 683.041 857.173 665.077L860.205 659.644C883.002 618.717 916.665 581.255 963.158 545.16C989.088 524.996 1010.95 503.665 1034.08 481.068C1043.41 471.97 1052.81 462.804 1062.54 453.706C1080.61 436.741 1134.97 379.282 1147.53 339.021C1150 331.022 1148.03 322.39 1146.1 314.024C1143.73 303.659 1141.5 293.894 1147.93 286.594C1158.2 274.963 1169.06 251.799 1157 235.735C1155.67 233.968 1154.43 232.402 1153.23 230.935C1147.17 223.236 1143.83 219.004 1143.83 207.739C1143.94 207.005 1144.53 204.406 1145.23 201.373C1148 189.574 1148.17 188.308 1147.73 187.141C1147 184.942 1144.7 181.309 1137.77 181.309C1129.84 181.309 1119 186.041 1113.17 188.574L1111.14 189.408C1093.37 196.773 1074.48 201.806 1056.18 206.705C1033.02 212.871 1009.05 219.27 987.022 230.402C945.561 251.433 917.531 296.86 901.334 331.288C892.735 349.486 885.002 369.883 877.603 393.88C876.17 400.512 872.637 419.576 868.104 443.706C860.072 486.767 849.04 545.693 843.141 570.756C842.674 572.822 842.008 575.789 841.241 579.421C827.91 641.38 815.112 674.775 803.113 678.908C790.682 619.649 796.248 548.226 816.811 500.832C819.478 497.366 823.677 483.668 830.91 459.771C837.142 438.974 844.208 415.477 850.44 400.279C859.439 378.382 870.571 343.72 872.304 318.124C873.304 303.459 876.67 288.461 879.936 273.93C883.803 256.732 887.802 238.968 888.101 221.103C888.505 195.607 885.002 175.976 875.57 151.046C869.838 135.848 859.272 123.417 849.074 111.385C838.075 98.3867 827.677 86.0884 822.611 70.5238C821.211 66.2244 819.844 61.6917 818.478 57.0256C811.746 34.2287 804.213 8.66551 786.049 1.73308C785.479 0.100018 783.282 0.06669 777.017 0L776.947 2.79962L776.883 2.86622L775.449 0.333244H775.385C775.283 0.433044 775.187 0.466348 775.052 0.532898L773.186 1.49942L773.251 1.59922C766.418 5.93195 763.652 12.8311 761.019 19.4968C758.853 24.9294 756.786 30.0954 752.687 33.9282C749.654 36.8278 746.688 39.4274 743.855 41.9271C733.19 51.3925 723.924 59.558 717.159 75.5559C712.392 86.7877 705.394 98.3861 698.028 110.684C683.53 134.881 668.498 159.911 667.599 186.174C666.699 212.604 669.832 230.268 673.797 252.599C675.131 260.064 676.53 268.063 677.897 277.062C682.83 309.358 696.662 339.154 710.026 368.016C713.259 374.982 716.492 381.948 719.591 388.913L725.291 401.712C740.489 435.774 756.186 471.002 766.085 505.764C767.819 511.797 772.517 574.222 770.285 600.352C769.651 599.918 769.018 599.485 768.418 599.118C765.785 597.419 763.752 596.085 762.619 594.119C761.719 592.619 760.719 585.62 759.886 580.021C758.753 572.155 757.453 563.29 755.386 557.691C755.284 540.393 749.587 526.528 737.456 514.096C724.891 501.198 720.491 483.934 716.226 467.236C712.392 452.172 708.426 436.574 698.461 424.042C692.662 416.743 685.996 410.111 679.564 403.678L675.331 399.412C673.598 395.679 673.764 391.38 673.998 386.847C674.196 381.748 674.433 376.448 671.998 371.416C667.165 361.317 659.6 352.485 652.334 343.953C646.934 337.687 641.369 331.188 636.936 324.122L634.503 320.889C623.138 305.925 609.04 287.26 589.476 287.26H588.509C576.611 287.26 575.911 284.761 574.245 278.662C572.645 272.796 570.445 264.697 557.547 257.031C539.616 246.399 521.885 241.333 503.088 235.934C483.124 230.202 462.46 224.269 438.463 211.071C429.297 206.038 421.632 199.039 414.833 192.907C406.967 185.741 400.735 180.075 394.635 180.075C387.67 180.075 384.603 187.141 383.57 189.44C378.804 200.372 380.571 214.104 382.304 227.402C383.103 233.568 383.837 239.4 383.837 244.433C383.434 276.895 390.202 308.958 396.735 339.987C398.901 350.252 401.068 360.484 402.967 370.749C408.1 398.479 431.597 411.644 454.294 424.375C466.459 431.208 477.958 437.673 486.757 446.172C494.289 453.471 500.621 461.87 506.787 469.969C515.752 481.801 525.017 494.066 538.25 503.298C551.148 512.297 565.212 516.23 578.811 520.062C585.41 521.895 592.208 523.829 598.908 526.295C610.806 530.728 619.505 539.56 628.671 548.892C632.637 552.925 636.703 557.091 641.069 560.824C649.301 567.923 659.033 571.922 668.465 575.755C678.364 579.788 687.662 583.554 695.295 590.686C697.694 592.919 699.961 595.485 702.261 598.118C709.259 605.984 716.492 614.083 727.557 614.983C729.457 614.983 731.356 614.914 733.289 614.85C739.555 614.65 746.488 614.084 753.087 617.316C768.118 624.682 769.251 642.046 768.218 659.71C767.918 665.043 768.321 673.342 769.085 683.24C766.951 682.907 764.785 682.607 762.519 682.607C740.256 682.607 722.158 698.905 722.158 718.903C722.158 738.9 740.256 755.131 762.519 755.131C767.252 755.131 771.718 754.297 775.917 752.931C777.517 770.296 778.517 785.494 777.584 792.359C745.788 781.561 697.994 734.8 674.764 705.404C656.1 681.708 639.469 656.278 623.438 631.748C589.443 579.788 554.314 526.062 498.655 488.4C456.394 459.838 409.234 446.24 372.872 437.574C348.309 431.741 318.612 428.375 291.45 428.375C269.553 428.375 250.555 430.475 234.957 434.641C227.358 436.641 222.159 440.374 219.46 445.74C212.893 458.971 223.159 479.435 233.058 499.266C239.223 511.564 245.022 523.196 246.656 532.361C251.555 560.291 256.688 583.188 274.052 602.818C287.55 618.116 310.014 640.847 325.045 652.911C368.472 687.674 461.227 716.503 554.98 742.499C569.978 746.665 584.776 750.732 598.974 754.631C635.903 764.796 667.765 773.562 691.496 780.661C730.224 789.76 764.319 816.923 780.516 851.484C790.782 873.448 794.015 895.845 797.415 919.542C799.581 934.573 801.814 950.138 806.013 965.936C807.713 972.335 810.146 978.667 812.479 984.766C816.945 996.265 821.144 1007.13 820.844 1018.53C820.774 1022.46 819.145 1026.79 817.578 1030.93C815.145 1037.36 812.646 1043.99 815.845 1049.66C817.945 1053.39 822.211 1056.09 828.91 1057.89C832.01 1058.69 835.076 1059.16 837.975 1059.16C846.341 1059.16 853.573 1055.62 858.306 1049.22C864.672 1040.69 865.705 1028.46 860.972 1017.3C858.839 1012.26 856.406 1007.13 853.973 1001.93C846.574 986.267 838.942 970.035 838.009 953.638L837.778 952.671C822.314 918.309 819.014 884.28 826.213 835.82L827.113 833.754C828.613 830.121 830.413 826.021 832.413 821.789C853.743 821.422 870.974 805.358 870.974 785.594C870.974 785.562 870.974 785.494 870.974 785.46C872.907 785.16 874.907 784.927 877.04 784.927C879.339 784.927 881.706 785.094 884.172 785.46C886.739 785.86 889.038 786.027 891.172 786.027C898.537 786.027 902.003 783.627 904.803 781.694C907.336 779.961 909.202 778.761 913.801 779.194C934.599 781.027 963.761 777.128 988.891 769.462C1009.39 764.063 1026.39 754.931 1042.78 746.165C1060.81 736.533 1079.41 726.568 1102.98 721.602C1123.91 714.036 1140.67 708.704 1166.03 708.704C1188.2 708.704 1199.26 695.406 1210.99 681.408C1214.26 677.475 1217.66 673.409 1221.36 669.609C1232.96 657.577 1246.66 648.945 1259.95 640.613C1277.59 629.548 1295.78 618.149 1309.48 598.652C1322.21 580.621 1323.95 561.79 1325.61 543.56C1326.85 530.295 1328.11 516.597 1333.54 502.998C1335.28 498.599 1336.91 494.866 1338.31 491.7C1342.21 482.868 1344.34 478.002 1341.74 474.169" fill="white"/>
<path d="M736.328 584.188C703.632 559.191 677.803 539.461 655.506 501.766C633.542 464.671 609.178 426.209 573.85 399.28C565.485 392.914 557.552 386.948 549.953 381.282C488.195 334.955 450.933 306.992 402.506 217.004C401.707 215.571 399.774 214.971 398.241 215.704C396.707 216.438 396.041 218.171 396.84 219.604C445.867 310.691 483.562 338.954 545.954 385.748C553.553 391.447 561.485 397.413 569.817 403.746C604.279 430.009 628.276 467.937 649.94 504.532C672.836 543.227 699.066 563.257 732.295 588.687L738.595 593.487C739.196 593.953 739.894 594.153 740.628 594.153C741.527 594.153 742.427 593.786 743.061 593.086C744.161 591.886 743.993 590.053 742.657 589.02L736.325 584.188" fill="white"/>
<path d="M1306.82 486.302C1262.96 517.664 1133.91 598.954 1034.52 659.412C1013.32 672.31 993.094 684.275 974.696 695.174C917.204 729.203 887.008 747.4 882.842 757.199C882.208 758.732 883.04 760.398 884.642 760.965C885.039 761.098 885.408 761.198 885.809 761.198C887.042 761.198 888.275 760.498 888.741 759.331C892.341 750.799 932.102 727.302 978.129 700.073C996.527 689.174 1016.79 677.176 1038.02 664.244C1137.51 603.753 1266.69 522.364 1310.72 490.868C1312.08 489.901 1312.35 488.068 1311.28 486.802C1310.18 485.535 1308.18 485.302 1306.81 486.302" fill="white"/>
<path d="M781.989 182.375L782.053 180.542C783.02 126.849 783.92 76.0892 787.92 37.4277C788.054 35.8613 786.786 34.4282 785.053 34.2615C783.32 34.0951 781.787 35.2947 781.62 36.8945C777.587 75.7893 776.688 126.616 775.721 180.475V182.275C773.488 304.392 776.454 425.842 782.587 464.77C782.817 466.203 784.154 467.236 785.72 467.236C785.854 467.236 786.021 467.236 786.155 467.204C787.888 467.005 789.088 465.538 788.855 463.938C782.755 425.277 779.823 304.226 782.023 182.376" fill="white"/>
<path d="M861.779 599.552C862.175 599.718 862.645 599.818 863.045 599.818C864.278 599.818 865.445 599.152 865.944 598.052C883.042 562.523 947.034 439.907 1014.72 345.653C1043.22 306.025 1089.95 251.632 1117.88 219.103L1125.84 209.838C1126.91 208.605 1126.68 206.772 1125.31 205.772C1123.91 204.772 1121.91 204.972 1120.85 206.238L1112.91 215.504C1084.92 248.099 1038.09 302.625 1009.46 342.453C941.503 437.007 877.312 560.057 860.148 595.752C859.448 597.218 860.212 598.918 861.781 599.552" fill="white"/>
<path d="M582.481 372.383C583.083 372.383 583.648 372.25 584.182 371.95C585.648 371.117 586.081 369.284 585.181 367.917C577.249 356.419 574.283 324.356 582.148 307.359C582.815 305.859 582.079 304.159 580.482 303.559C578.848 302.926 577.016 303.591 576.349 305.092C567.417 324.356 570.85 358.019 579.815 371.05C580.417 371.917 581.448 372.383 582.481 372.383Z" fill="white"/>
<path d="M664.937 476.268C665.538 476.268 666.137 476.135 666.637 475.835C668.103 474.968 668.57 473.168 667.637 471.835C661.604 463.07 656.272 430.474 660.271 418.809C660.971 416.776 661.671 416.409 661.638 416.409C661.804 416.478 662.271 416.509 663.137 417.076C664.538 418.009 666.537 417.675 667.537 416.376C668.537 415.043 668.203 413.243 666.771 412.31C661.804 409.077 658.405 411.243 657.172 412.31C647.44 420.809 654.939 464.303 662.271 474.935C662.873 475.801 663.903 476.268 664.937 476.268Z" fill="white"/>
<path d="M554.853 490.9C553.587 492.034 553.587 493.867 554.783 495C556.016 496.166 557.983 496.2 559.249 495.068C574.547 481.404 598.31 494.002 614.842 504.634C615.373 505.001 616.042 505.167 616.641 505.167C617.641 505.167 618.641 504.734 619.241 503.934C620.241 502.634 619.907 500.801 618.475 499.901C607.876 493.069 575.714 472.305 554.85 490.902" fill="white"/>
<path d="M427.903 335.288C426.403 334.521 424.47 335.088 423.67 336.521C422.837 337.954 423.44 339.687 425.004 340.421C444.101 349.553 530.889 408.345 539.254 420.476C539.856 421.343 540.854 421.843 541.921 421.843C542.49 421.843 543.087 421.677 543.587 421.376C545.087 420.543 545.52 418.743 544.587 417.377C535.188 403.712 446.1 343.953 427.903 335.288Z" fill="white"/>
<path d="M955.931 404.447C956.066 404.447 956.2 404.416 956.328 404.381C958.061 404.181 959.261 402.714 959.061 401.115C948.262 327.225 975.759 282.764 984.824 268.133L985.458 267.099C986.325 265.7 985.791 263.933 984.258 263.167C982.725 262.333 980.792 262.833 979.959 264.233L979.325 265.266C970.026 280.298 941.73 326.058 952.795 401.914C952.993 403.381 954.361 404.447 955.928 404.447" fill="white"/>
<path d="M864.844 564.957C865.075 565.025 865.311 565.057 865.544 565.057C866.977 565.057 868.277 564.157 868.61 562.79C881.342 511.63 886.541 472.402 884.975 439.307C884.911 437.74 883.441 436.441 881.709 436.541C879.976 436.609 878.609 437.94 878.675 439.574C880.209 472.136 875.043 510.864 862.445 561.49C862.08 563.057 863.144 564.623 864.844 564.957Z" fill="white"/>
<path d="M1110.04 363.75C1072.12 363.75 1051.52 385.647 1033.36 404.944C1021.36 417.676 1010.06 429.674 995.16 434.507C993.494 435.04 992.628 436.74 993.227 438.24C993.662 439.406 994.894 440.173 996.194 440.173C996.526 440.173 996.893 440.104 997.26 440.007C1013.72 434.641 1025.59 422.076 1038.12 408.777C1056.25 389.513 1075.02 369.583 1110.04 369.583C1111.78 369.583 1113.21 368.283 1113.21 366.683C1113.21 365.083 1111.78 363.75 1110.04 363.75Z" fill="white"/>
<path d="M737.461 570.491C737.691 571.957 739.061 573.024 740.627 573.024C740.762 573.024 740.896 573.024 740.992 572.992C742.759 572.792 743.992 571.359 743.759 569.726C741.726 555.128 734.26 543.729 725.595 530.531C712.229 510.2 695.599 484.87 688.466 434.111C688.268 432.511 686.8 431.378 684.933 431.578C683.2 431.777 681.967 433.244 682.2 434.844C689.499 486.837 706.497 512.733 720.162 533.564C728.827 546.695 735.627 557.094 737.459 570.492" fill="white"/>
<path d="M1016.22 470.772C996.093 471.805 982.628 480.371 968.363 489.436C965.597 491.236 962.731 493.036 959.765 494.835C958.298 495.735 957.898 497.535 958.865 498.868C959.466 499.702 960.498 500.168 961.531 500.168C962.101 500.168 962.731 500.002 963.264 499.702C966.264 497.869 969.163 496.002 971.963 494.202C986.061 485.27 998.226 477.505 1016.59 476.571C1018.32 476.472 1019.66 475.105 1019.56 473.505C1019.49 471.905 1018.06 470.705 1016.22 470.772Z" fill="white"/>
</svg>
