<svg width="600" height="516" viewBox="0 0 600 516" fill="none" xmlns="http://www.w3.org/2000/svg">
<line x1="138" y1="224" x2="221" y2="224" stroke="#1C4354" stroke-width="6"/>
<line x1="296.121" y1="255.879" x2="380.121" y2="339.879" stroke="#1C4354" stroke-width="6"/>
<line x1="138" y1="224" x2="221" y2="224" stroke="#1C4354" stroke-width="6"/>
<line x1="296.121" y1="255.879" x2="380.121" y2="339.879" stroke="#1C4354" stroke-width="6"/>
<line y1="-3" x2="118.794" y2="-3" transform="matrix(0.707107 -0.707107 -0.707107 -0.707107 436 342)" stroke="#1C4354" stroke-width="6"/>
<line x1="517.879" y1="468.121" x2="433.879" y2="384.121" stroke="#1C4354" stroke-width="6"/>
<line x1="554" y1="184" x2="554" y2="108" stroke="#1C4354" stroke-width="6"/>
<line x1="269" y1="184" x2="269" y2="108" stroke="#1C4354" stroke-width="6"/>
<path d="M251.5 86.499V81C251.5 75.258 247.996 69.72 243.94 63.309C239.047 55.575 233.5 46.809 233.5 36C233.5 16.977 248.977 1.5 268 1.5C287.023 1.5 302.5 16.977 302.5 36C302.5 46.809 296.953 55.575 292.06 63.309C288.004 69.72 284.5 75.258 284.5 81V86.499H251.5Z" fill="#DFF0FE"/>
<path d="M268 3C286.195 3 301 17.805 301 36C301 46.374 295.576 54.945 290.794 62.505C286.786 68.841 283 74.823 283 81V84.999H268H253V81C253 74.823 249.214 68.841 245.206 62.505C240.424 54.945 235 46.374 235 36C235 17.805 249.805 3 268 3ZM268 0C248.119 0 232 16.119 232 36C232 56.001 250 68.874 250 81V87.999H268H286V81C286 68.874 304 56.001 304 36C304 16.119 287.881 0 268 0Z" fill="#4788C7"/>
<path d="M276.142 31.005C277.648 31.005 279.064 31.59 280.129 32.655C282.328 34.854 282.328 38.43 280.129 40.626L274.879 45.876L274 46.758V48V84H262V48V46.758L261.121 45.879L255.871 40.629C253.672 38.43 253.672 34.854 255.871 32.658C256.936 31.593 258.352 31.008 259.858 31.008C261.364 31.008 262.78 31.593 263.845 32.658L265.882 34.695L268 36.813L270.121 34.692L272.158 32.655C273.223 31.593 274.636 31.005 276.142 31.005ZM276.142 28.005C273.931 28.005 271.72 28.848 270.034 30.534L268 32.571L265.963 30.534C264.277 28.848 262.066 28.005 259.855 28.005C257.644 28.005 255.433 28.848 253.747 30.534C250.375 33.906 250.375 39.375 253.747 42.747L259 48V87H277V48L282.25 42.75C285.622 39.378 285.622 33.909 282.25 30.537C280.564 28.848 278.353 28.005 276.142 28.005Z" fill="#4788C7"/>
<path d="M268 90C264.817 90 261.765 91.2643 259.515 93.5147C257.264 95.7652 256 98.8174 256 102C256 105.183 257.264 108.235 259.515 110.485C261.765 112.736 264.817 114 268 114C271.183 114 274.235 112.736 276.485 110.485C278.736 108.235 280 105.183 280 102C280 98.8174 278.736 95.7652 276.485 93.5147C274.235 91.2643 271.183 90 268 90Z" fill="#4788C7"/>
<path d="M259 106.5C254.866 106.5 251.5 103.134 251.5 99V82.5H284.5V99C284.5 103.134 281.134 106.5 277 106.5H259Z" fill="#DFF0FE"/>
<path d="M283 84V99C283 102.309 280.309 105 277 105H259C255.691 105 253 102.309 253 99V84H283ZM286 81H250V99C250 103.971 254.029 108 259 108H277C281.971 108 286 103.971 286 99V81Z" fill="#4788C7"/>
<path d="M284.5 90H266.5C265.675 90 265 89.325 265 88.5C265 87.675 265.675 87 266.5 87H284.5C285.325 87 286 87.675 286 88.5C286 89.325 285.325 90 284.5 90ZM284.5 96H266.5C265.675 96 265 95.325 265 94.5C265 93.675 265.675 93 266.5 93H284.5C285.325 93 286 93.675 286 94.5C286 95.325 285.325 96 284.5 96ZM284.5 102H266.5C265.675 102 265 101.325 265 100.5C265 99.675 265.675 99 266.5 99H284.5C285.325 99 286 99.675 286 100.5C286 101.325 285.325 102 284.5 102ZM257.5 96H251.5C250.675 96 250 95.325 250 94.5C250 93.675 250.675 93 251.5 93H257.5C258.325 93 259 93.675 259 94.5C259 95.325 258.325 96 257.5 96ZM257.5 102H253C251.35 102 250 100.65 250 99H257.5C258.325 99 259 99.675 259 100.5C259 101.325 258.325 102 257.5 102ZM257.5 90H251.5C250.675 90 250 89.325 250 88.5C250 87.675 250.675 87 251.5 87H257.5C258.325 87 259 87.675 259 88.5C259 89.325 258.325 90 257.5 90Z" fill="#4788C7"/>
<path d="M537.5 86.499V81C537.5 75.258 533.996 69.72 529.94 63.309C525.047 55.575 519.5 46.809 519.5 36C519.5 16.977 534.977 1.5 554 1.5C573.023 1.5 588.5 16.977 588.5 36C588.5 46.809 582.953 55.575 578.06 63.309C574.004 69.72 570.5 75.258 570.5 81V86.499H537.5Z" fill="#DFF0FE"/>
<path d="M554 3C572.195 3 587 17.805 587 36C587 46.374 581.576 54.945 576.794 62.505C572.786 68.841 569 74.823 569 81V84.999H554H539V81C539 74.823 535.214 68.841 531.206 62.505C526.424 54.945 521 46.374 521 36C521 17.805 535.805 3 554 3ZM554 0C534.119 0 518 16.119 518 36C518 56.001 536 68.874 536 81V87.999H554H572V81C572 68.874 590 56.001 590 36C590 16.119 573.881 0 554 0Z" fill="#4788C7"/>
<path d="M562.142 31.005C563.648 31.005 565.064 31.59 566.129 32.655C568.328 34.854 568.328 38.43 566.129 40.626L560.879 45.876L560 46.758V48V84H548V48V46.758L547.121 45.879L541.871 40.629C539.672 38.43 539.672 34.854 541.871 32.658C542.936 31.593 544.352 31.008 545.858 31.008C547.364 31.008 548.78 31.593 549.845 32.658L551.882 34.695L554 36.813L556.121 34.692L558.158 32.655C559.223 31.593 560.636 31.005 562.142 31.005ZM562.142 28.005C559.931 28.005 557.72 28.848 556.034 30.534L554 32.571L551.963 30.534C550.277 28.848 548.066 28.005 545.855 28.005C543.644 28.005 541.433 28.848 539.747 30.534C536.375 33.906 536.375 39.375 539.747 42.747L545 48V87H563V48L568.25 42.75C571.622 39.378 571.622 33.909 568.25 30.537C566.564 28.848 564.353 28.005 562.142 28.005Z" fill="#4788C7"/>
<path d="M554 90C550.817 90 547.765 91.2643 545.515 93.5147C543.264 95.7652 542 98.8174 542 102C542 105.183 543.264 108.235 545.515 110.485C547.765 112.736 550.817 114 554 114C557.183 114 560.235 112.736 562.485 110.485C564.736 108.235 566 105.183 566 102C566 98.8174 564.736 95.7652 562.485 93.5147C560.235 91.2643 557.183 90 554 90Z" fill="#4788C7"/>
<path d="M545 106.5C540.866 106.5 537.5 103.134 537.5 99V82.5H570.5V99C570.5 103.134 567.134 106.5 563 106.5H545Z" fill="#DFF0FE"/>
<path d="M569 84V99C569 102.309 566.309 105 563 105H545C541.691 105 539 102.309 539 99V84H569ZM572 81H536V99C536 103.971 540.029 108 545 108H563C567.971 108 572 103.971 572 99V81Z" fill="#4788C7"/>
<path d="M570.5 90H552.5C551.675 90 551 89.325 551 88.5C551 87.675 551.675 87 552.5 87H570.5C571.325 87 572 87.675 572 88.5C572 89.325 571.325 90 570.5 90ZM570.5 96H552.5C551.675 96 551 95.325 551 94.5C551 93.675 551.675 93 552.5 93H570.5C571.325 93 572 93.675 572 94.5C572 95.325 571.325 96 570.5 96ZM570.5 102H552.5C551.675 102 551 101.325 551 100.5C551 99.675 551.675 99 552.5 99H570.5C571.325 99 572 99.675 572 100.5C572 101.325 571.325 102 570.5 102ZM543.5 96H537.5C536.675 96 536 95.325 536 94.5C536 93.675 536.675 93 537.5 93H543.5C544.325 93 545 93.675 545 94.5C545 95.325 544.325 96 543.5 96ZM543.5 102H539C537.35 102 536 100.65 536 99H543.5C544.325 99 545 99.675 545 100.5C545 101.325 544.325 102 543.5 102ZM543.5 90H537.5C536.675 90 536 89.325 536 88.5C536 87.675 536.675 87 537.5 87H543.5C544.325 87 545 87.675 545 88.5C545 89.325 544.325 90 543.5 90Z" fill="#4788C7"/>
<rect x="1.5" y="184.5" width="135" height="90" fill="#DFF0FE" stroke="#4788C7" stroke-width="3"/>
<rect x="11.5" y="193.5" width="33" height="32" fill="#B6DCFE" stroke="#4788C7" stroke-width="3"/>
<rect x="11.5" y="233.5" width="33" height="32" fill="#B6DCFE" stroke="#4788C7" stroke-width="3"/>
<rect x="52.5" y="193.5" width="33" height="32" fill="#B6DCFE" stroke="#4788C7" stroke-width="3"/>
<rect x="52.5" y="233.5" width="33" height="32" fill="#B6DCFE" stroke="#4788C7" stroke-width="3"/>
<rect x="93.5" y="193.5" width="33" height="32" fill="#B6DCFE" stroke="#4788C7" stroke-width="3"/>
<rect x="93.5" y="233.5" width="33" height="32" fill="#B6DCFE" stroke="#4788C7" stroke-width="3"/>
<rect x="511.5" y="423.5" width="76" height="91" fill="#DFF0FE" stroke="#4788C7" stroke-width="3"/>
<rect x="536" y="409" width="27" height="16" fill="#4788C7"/>
<circle cx="410.5" cy="370.5" r="45" fill="#DFF0FE" stroke="#4788C7" stroke-width="3"/>
<path d="M408.21 379.317V382H395.034V379.317H408.21ZM395.7 357.117V382H392.402V357.117H395.7ZM406.467 367.815V370.499H395.034V367.815H406.467ZM408.039 357.117V359.817H395.034V357.117H408.039ZM421.472 372.242H414.824V369.559H421.472C422.759 369.559 423.802 369.354 424.599 368.943C425.397 368.533 425.978 367.964 426.342 367.234C426.718 366.505 426.906 365.674 426.906 364.739C426.906 363.885 426.718 363.082 426.342 362.33C425.978 361.578 425.397 360.974 424.599 360.518C423.802 360.051 422.759 359.817 421.472 359.817H415.593V382H412.294V357.117H421.472C423.352 357.117 424.941 357.442 426.24 358.091C427.539 358.741 428.524 359.641 429.196 360.792C429.868 361.931 430.205 363.235 430.205 364.705C430.205 366.3 429.868 367.662 429.196 368.79C428.524 369.917 427.539 370.778 426.24 371.37C424.941 371.951 423.352 372.242 421.472 372.242Z" fill="#4788C7"/>
<circle cx="267.5" cy="227.5" r="45" fill="#DFF0FE" stroke="#4788C7" stroke-width="3"/>
<path d="M268.525 229.242H261.877V226.559H268.525C269.813 226.559 270.855 226.354 271.653 225.943C272.45 225.533 273.031 224.964 273.396 224.234C273.772 223.505 273.96 222.674 273.96 221.739C273.96 220.885 273.772 220.082 273.396 219.33C273.031 218.578 272.45 217.974 271.653 217.518C270.855 217.051 269.813 216.817 268.525 216.817H262.646V239H259.348V214.117H268.525C270.405 214.117 271.995 214.442 273.293 215.091C274.592 215.741 275.578 216.641 276.25 217.792C276.922 218.931 277.258 220.235 277.258 221.705C277.258 223.3 276.922 224.662 276.25 225.79C275.578 226.917 274.592 227.778 273.293 228.37C271.995 228.951 270.405 229.242 268.525 229.242Z" fill="#4788C7"/>
<circle cx="553.5" cy="227.5" r="45" fill="#DFF0FE" stroke="#4788C7" stroke-width="3"/>
<path d="M560.011 231.087H563.292C563.122 232.66 562.672 234.067 561.942 235.309C561.213 236.55 560.182 237.536 558.849 238.265C557.516 238.983 555.853 239.342 553.859 239.342C552.401 239.342 551.073 239.068 549.877 238.521C548.692 237.975 547.672 237.2 546.818 236.197C545.963 235.183 545.303 233.97 544.835 232.557C544.38 231.133 544.152 229.549 544.152 227.806V225.328C544.152 223.585 544.38 222.007 544.835 220.594C545.303 219.17 545.969 217.951 546.835 216.937C547.712 215.923 548.766 215.143 549.997 214.596C551.227 214.049 552.611 213.775 554.149 213.775C556.029 213.775 557.619 214.129 558.917 214.835C560.216 215.541 561.225 216.521 561.942 217.774C562.672 219.016 563.122 220.458 563.292 222.098H560.011C559.852 220.936 559.556 219.939 559.123 219.107C558.69 218.264 558.074 217.615 557.277 217.159C556.479 216.703 555.437 216.476 554.149 216.476C553.044 216.476 552.07 216.686 551.227 217.108C550.395 217.529 549.695 218.128 549.125 218.902C548.567 219.677 548.145 220.606 547.86 221.688C547.576 222.77 547.433 223.972 547.433 225.294V227.806C547.433 229.025 547.558 230.17 547.809 231.241C548.071 232.312 548.464 233.252 548.988 234.061C549.512 234.87 550.179 235.508 550.988 235.975C551.797 236.431 552.754 236.659 553.859 236.659C555.26 236.659 556.377 236.437 557.208 235.992C558.04 235.548 558.667 234.91 559.088 234.078C559.521 233.246 559.829 232.25 560.011 231.087Z" fill="#4788C7"/>
</svg>
